<svg width="186" height="114" viewBox="0 0 186 114" fill="none" xmlns="http://www.w3.org/2000/svg">
<g clip-path="url(#clip0_742_5088)">
<path opacity="0.1" d="M185.999 73.1498C186.002 76.2356 185.628 79.3102 184.883 82.3055C184.632 83.3138 184.341 84.3021 184.01 85.2705C183.603 86.4643 183.133 87.6356 182.601 88.7793C182.332 89.3568 182.049 89.9238 181.75 90.4803C181.754 93.6446 181.1 96.7755 179.828 99.6753C177.527 104.877 173.426 109.084 168.271 111.529C165.044 113.061 161.517 113.866 157.942 113.887H35.3083C29.8517 113.899 24.4892 112.472 19.766 109.752C19.068 109.35 18.3879 108.921 17.7256 108.466C16.2878 107.477 14.937 106.369 13.6877 105.152C11.9963 103.505 10.5063 101.665 9.24856 99.6706C6.29357 94.9997 4.72817 89.591 4.73366 84.071C1.7411 78.8438 -0.00390625 72.5823 -0.00390625 65.8539C-0.00390625 57.3647 2.76915 49.6207 7.32511 43.7584C8.27494 42.5337 9.31536 41.3813 10.4377 40.3109C11.5451 39.2517 12.7353 38.2818 13.9972 37.4104C15.0064 36.712 16.0616 36.0817 17.1556 35.524C17.6119 35.2913 18.0699 35.0744 18.5358 34.8716C18.9448 34.6908 19.3585 34.5226 19.777 34.3638C20.2792 34.173 20.7877 33.9985 21.3025 33.8403C21.8173 33.682 22.3253 33.5426 22.8264 33.4221C23.5634 33.2429 24.313 33.0972 25.0752 32.9851C25.7069 32.8923 26.3385 32.8279 26.9702 32.7776C27.4724 32.7419 27.9788 32.721 28.4894 32.7147H28.7658C29.3279 32.7147 29.887 32.7367 30.4413 32.7744C30.4997 32.6581 30.5629 32.5402 30.6213 32.4239C30.8424 32.0057 31.0714 31.5875 31.3019 31.1772V31.1662C31.3414 31.0955 31.3809 31.0247 31.422 30.9555C31.6083 30.6207 31.8025 30.289 32.0015 29.9604C32.0931 29.8032 32.1831 29.6554 32.2763 29.5061C32.2968 29.4699 32.3174 29.4354 32.341 29.3992C32.4358 29.242 32.5321 29.0848 32.63 28.9276C33.1175 28.1531 33.6244 27.3906 34.1508 26.6402C34.1966 26.5758 34.2392 26.5129 34.285 26.45C34.3671 26.3337 34.4429 26.2189 34.5345 26.1041C34.7525 25.8007 34.9767 25.4958 35.2025 25.1955C35.3605 24.9833 35.5184 24.771 35.6889 24.5667C36.0995 24.0384 36.5212 23.5134 36.9523 22.9946C37.3834 22.4758 37.8382 21.9539 38.2977 21.443C38.3609 21.3722 38.4241 21.303 38.4904 21.2323L39.1647 20.5013C39.1979 20.4667 39.2263 20.4353 39.2579 20.4038C39.3384 20.3174 39.4158 20.2309 39.5027 20.146C39.8643 19.7656 40.2354 19.3898 40.6081 19.0188C42.5117 17.1359 44.5397 15.3817 46.6785 13.7681C46.7622 13.7021 46.8475 13.6392 46.9312 13.5763C47.3323 13.2745 47.7397 12.9774 48.1471 12.685C50.3886 11.0851 52.7311 9.63054 55.1603 8.33035C55.3277 8.23603 55.4983 8.14642 55.6704 8.05681C57.8488 6.91034 60.0889 5.88381 62.3804 4.98185C63.629 4.49032 64.8997 4.03127 66.1925 3.60472C67.0485 3.32646 67.9075 3.06079 68.7777 2.81869C70.1231 2.43405 71.4854 2.08715 72.8646 1.77798C76.9277 0.870402 81.0613 0.309758 85.2202 0.102156C86.4835 0.0361288 87.7611 0.00311582 89.0529 0.00311582C95.2859 -0.00509885 101.495 0.77674 107.529 2.32977C107.592 2.42364 107.677 2.50016 107.777 2.55214C107.878 2.60412 107.99 2.62984 108.103 2.62689H108.633C108.864 2.68821 109.093 2.75266 109.323 2.81869C110.611 3.18865 111.88 3.59162 113.131 4.02761L113.447 4.1408C116.534 5.23351 119.537 6.54699 122.434 8.07096C125.045 9.442 127.559 10.9883 129.959 12.6991C130.328 12.9632 130.692 13.23 131.051 13.4993C131.487 13.2195 131.93 12.9528 132.381 12.6991C134.121 11.7131 135.969 10.9292 137.889 10.363C141.903 9.18056 146.15 9.0152 150.245 9.88198C155.496 10.9903 160.249 13.7414 164.088 17.6543C165.652 19.2501 167.045 21.0035 168.244 22.8861C168.331 23.0213 168.418 23.1581 168.502 23.2964C169.531 24.9684 170.415 26.7244 171.145 28.5456C171.172 28.6116 171.199 28.676 171.223 28.7421C171.897 30.4464 172.441 32.199 172.849 33.9849C172.868 34.0745 172.89 34.1657 172.909 34.2569C173.292 35.9852 173.551 37.7382 173.686 39.5029C173.686 39.5658 173.686 39.6302 173.699 39.6947C173.765 40.6075 173.799 41.5303 173.8 42.4631C173.8 43.2963 173.772 44.1232 173.72 44.9422C173.72 45.0318 173.707 45.1261 173.699 45.2173C173.685 45.4563 173.664 45.6889 173.644 45.9295C174.85 46.8974 175.979 47.957 177.02 49.0988C177.48 49.5987 177.925 50.118 178.356 50.6567C179.668 52.2928 180.821 54.0494 181.799 55.9027C184.464 60.9301 185.999 66.8317 185.999 73.1498Z" fill="#E2AA25"/>
<path opacity="0.1" d="M168.154 104.093C168.154 107.666 164.434 111.01 157.942 113.89H35.3081C29.6341 113.89 24.3201 111.846 19.7657 108.282C18.6208 106.93 18.0176 105.53 18.0176 104.091C18.0176 100.293 22.2245 96.7482 29.4983 93.7518L29.7036 93.6701C31.7565 92.8322 34.0511 92.0414 36.5588 91.2978C36.622 91.279 36.6867 91.2617 36.7499 91.2397C38.7397 90.658 40.8563 90.1067 43.0998 89.5858C43.1709 89.5701 43.2404 89.5528 43.3114 89.5402C44.1768 89.3359 45.0596 89.1457 45.9613 88.9554L46.3087 88.8831C52.8703 87.528 60.3288 86.4527 68.4174 85.7233H68.4269C69.5597 85.6185 70.7046 85.5247 71.8616 85.4419C73.1486 85.3397 74.4515 85.2532 75.7685 85.1731C76.7745 85.1086 77.793 85.0536 78.8148 85.0033C78.8185 85.0017 78.8225 85.0008 78.8266 85.0008C78.8307 85.0008 78.8347 85.0017 78.8385 85.0033C83.4481 84.7722 88.2109 84.6511 93.0812 84.6511C105.124 84.6511 116.507 85.3869 126.593 86.6948C126.603 86.6932 126.612 86.6932 126.622 86.6948C128.172 86.896 129.695 87.1083 131.179 87.3346C131.604 87.4007 132.027 87.4667 132.442 87.5343C134.117 87.8036 135.749 88.0882 137.338 88.3879C156.02 91.9235 168.154 97.6443 168.154 104.093Z" fill="#E2AA25"/>
<path d="M137.627 38.2452C137.627 38.2452 135.956 37.5708 130.641 39.9965C125.325 42.4222 124.662 42.1156 123.287 41.7509C121.911 41.3862 121.144 41.2919 119.669 39.2655C119.669 39.2655 118.628 33.6516 117.616 32.7807C116.603 31.9098 112.33 33.2775 112.33 33.2775C112.33 33.2775 107.199 34.4487 106.222 27.618C106.222 27.618 106.915 22.4742 105.971 20.8959C105.971 20.8959 107.878 21.7134 111.024 20.3928C114.17 19.0723 116.689 21.8155 116.689 21.8155C116.689 21.8155 117.478 23.8592 117.399 25.0792C117.32 26.2991 117.819 26.7565 119.32 26.167C119.32 26.167 120.057 25.1232 119.013 23.397C117.969 21.6709 117.224 20.3865 117.515 19.0471C117.805 17.7077 118.644 15.848 121.336 14.9189C124.029 13.9898 127.685 13.8184 129.439 13.0843C131.194 12.3501 131.626 11.8817 131.626 11.8817C131.626 11.8817 130.546 12.9585 133.09 17.5254C135.634 22.0922 134.012 24.073 134.012 24.073C134.012 24.073 132.659 27.2848 126.683 27.0238C126.683 27.0238 120.926 27.2329 124.065 29.6633C124.065 29.6633 126.075 29.2561 129.081 28.305C132.086 27.3539 134.256 31.2794 134.794 34.0101C135.333 36.7407 137.627 38.2452 137.627 38.2452Z" fill="#E2AA25"/>
<path d="M129.887 15.3402L129.919 15.3308C130.149 16.2017 127.577 19.7043 125.377 22.4884L125.352 22.468C128.453 18.5473 130.065 16.0147 129.887 15.3402Z" fill="#444053"/>
<path d="M125.396 22.4146L125.411 22.4491C123.653 24.672 121.444 27.3225 119.675 29.2923C119.506 29.4794 119.339 29.6759 119.177 29.8772L119.127 29.8363C119.285 29.6351 119.457 29.437 119.626 29.2499C121.393 27.288 123.637 24.639 125.396 22.4146Z" fill="#444053"/>
<path d="M119.168 29.7859L119.203 29.8457C115.984 33.8466 115.771 40.0641 115.763 40.1129L115.084 39.3268C115.092 39.2765 115.927 33.8152 119.168 29.7859Z" fill="#444053"/>
<path d="M133.901 36.0758C133.901 36.0758 130.111 34.1107 127.148 34.8182C124.186 35.5256 117.523 32.3186 117.523 32.3186C117.523 32.3186 114.696 31.1757 114.128 29.8724C114.128 29.8724 112.187 27.8288 112.075 26.7739C111.963 25.719 110.076 23.0607 108.844 22.9585" stroke="#444053" stroke-miterlimit="10"/>
<path d="M133.343 37.967C133.343 37.967 131.432 36.6842 131.655 35.1907" stroke="#444053" stroke-miterlimit="10"/>
<path d="M130.413 39.6224C130.413 39.6224 127.679 38.6351 127.412 34.7615" stroke="#444053" stroke-miterlimit="10"/>
<path d="M126.005 40.6254C126.005 40.6254 123.393 38.4685 124.26 34.6987" stroke="#444053" stroke-miterlimit="10"/>
<path d="M120.701 39.5721C120.701 39.5721 118.964 35.9406 120.51 33.5778" stroke="#444053" stroke-miterlimit="10"/>
<path d="M133.938 33.6815C133.938 33.6815 131.962 34.3103 132.386 35.3416" stroke="#444053" stroke-miterlimit="10"/>
<path d="M131.552 30.1177C131.552 30.1177 128.907 30.9524 128.846 34.6767" stroke="#444053" stroke-miterlimit="10"/>
<path d="M127.864 29.2499C127.864 29.2499 125.455 32.2085 125.632 34.8967" stroke="#444053" stroke-miterlimit="10"/>
<path d="M123.648 30.41C123.648 30.41 121.257 32.6864 121.562 33.9519" stroke="#444053" stroke-miterlimit="10"/>
<path d="M122.205 29.6067C122.205 29.6067 119.963 30.006 119.648 29.2734" stroke="#444053" stroke-miterlimit="10"/>
<path d="M119.291 26.9122C119.291 26.9122 120.423 28.4057 120.712 28.0708" stroke="#444053" stroke-miterlimit="10"/>
<path d="M130.522 25.9674C130.522 25.9674 124.869 26.3761 123.59 24.6783" stroke="#444053" stroke-miterlimit="10"/>
<path d="M118.109 19.3851C118.109 19.3851 120.761 25.0524 122.689 25.774" stroke="#444053" stroke-miterlimit="10"/>
<path d="M120.885 16.6859C120.885 16.6859 122.513 21.8989 124.531 23.526" stroke="#444053" stroke-miterlimit="10"/>
<path d="M132.9 21.6646C132.9 21.6646 128.602 23.5008 126.021 21.6426" stroke="#444053" stroke-width="0.75" stroke-miterlimit="10"/>
<path d="M124.713 15.5745C124.713 15.5745 125.695 19.4056 127.019 20.3315" stroke="#444053" stroke-width="0.75" stroke-miterlimit="10"/>
<path d="M132.252 17.3713C132.252 17.3713 129.836 18.2831 128.936 17.5851" stroke="#444053" stroke-width="0.75" stroke-miterlimit="10"/>
<path d="M117.221 28.1636C117.221 28.1636 117.221 31.5042 116.309 31.7416" stroke="#444053" stroke-miterlimit="10"/>
<path d="M109.754 32.4915C109.754 32.4915 113.386 32.8059 115.055 30.9367" stroke="#444053" stroke-miterlimit="10"/>
<path d="M116.287 24.2177C116.287 24.2177 115.409 27.6055 112.986 28.5189" stroke="#444053" stroke-miterlimit="10"/>
<path d="M107.578 28.9229C107.578 28.9229 110.146 29.8111 112.355 27.5489" stroke="#444053" stroke-miterlimit="10"/>
<path d="M113.43 21.3046C113.43 21.3046 113.188 24.1815 111.617 25.5288" stroke="#444053" stroke-miterlimit="10"/>
<path d="M107.676 24.5384C107.676 24.5384 109.806 24.5525 110.305 23.8608" stroke="#444053" stroke-miterlimit="10"/>
<path d="M123.083 35.4627H62.4102V65.9514H123.083V35.4627Z" fill="#33323D"/>
<path d="M142.176 75.214H43.5117V95.283H142.176V75.214Z" fill="#33323D"/>
<path d="M67.0634 80.2305H117.656L127.736 114H56.4023L67.0634 80.2305Z" fill="white"/>
<path d="M40.7012 63.249V73.6702V75.8648V95.2814H59.6009V76.7577H126.088V95.2814H144.988V75.8648V73.6702V63.249H40.7012Z" fill="#504F60"/>
<path opacity="0.1" d="M144.988 63.249H40.7012V73.6686H144.988V63.249Z" fill="#33323D"/>
<path opacity="0.8" d="M139.367 70.0042C140.224 70.0042 140.918 69.313 140.918 68.4604C140.918 67.6078 140.224 66.9166 139.367 66.9166C138.511 66.9166 137.816 67.6078 137.816 68.4604C137.816 69.313 138.511 70.0042 139.367 70.0042Z" fill="#8CCF4D"/>
<path opacity="0.8" d="M132.389 70.0042C133.245 70.0042 133.939 69.313 133.939 68.4604C133.939 67.6078 133.245 66.9166 132.389 66.9166C131.532 66.9166 130.838 67.6078 130.838 68.4604C130.838 69.313 131.532 70.0042 132.389 70.0042Z" fill="#FA5959"/>
<path d="M120.855 28.129H64.6406V61.3184H120.855V28.129Z" fill="white"/>
<path d="M129.407 76.5707C129.525 77.855 128.551 79.1017 128.835 80.3594C128.895 80.6282 129.012 80.8828 129.054 81.1454C129.171 81.8921 128.724 82.5995 128.296 83.2252L124.628 88.5986C124.481 88.8343 124.305 89.0508 124.104 89.2431C123.401 89.8719 122.349 89.7996 121.428 89.9851C120.781 90.1158 120.17 90.3839 119.636 90.7711C119.613 90.7895 119.597 90.8159 119.593 90.8451C119.589 90.8743 119.596 90.904 119.612 90.9284C119.764 91.1356 119.966 91.3017 120.198 91.4116C120.431 91.5214 120.688 91.5715 120.945 91.5572C121.042 91.6829 120.945 91.8716 120.813 91.9596C120.615 92.0948 120.339 92.131 120.306 92.4643C120.292 92.5801 120.315 92.6972 120.372 92.7991C120.52 93.0242 120.751 93.1831 121.015 93.2424C122.278 93.6292 123.657 92.95 124.607 92.0257C125.558 91.1013 126.24 89.9348 127.174 88.9931C127.69 88.4728 128.279 88.0263 128.81 87.5217C129.871 86.5156 130.705 85.2909 131.494 84.0631C131.755 83.7071 131.952 83.3087 132.075 82.8857C132.173 82.4675 132.129 82.0257 132.243 81.6107C132.391 81.0683 132.791 80.636 133.122 80.1801C133.775 79.2872 134.209 78.1962 134.122 77.0957C134.035 75.9953 133.353 74.9121 132.311 74.538C131.988 74.4099 131.632 74.3884 131.295 74.4767C130.867 74.6072 130.553 74.9593 130.261 75.2957L129.564 76.0959C129.391 76.273 129.253 76.4817 129.159 76.7106C129.114 76.826 129.103 76.9518 129.129 77.0729C129.154 77.194 129.215 77.3051 129.302 77.3929" fill="#FBBEBE"/>
<path opacity="0.05" d="M129.407 76.5707C129.525 77.855 128.551 79.1017 128.835 80.3594C128.895 80.6282 129.012 80.8828 129.054 81.1454C129.171 81.8921 128.724 82.5995 128.296 83.2252L124.628 88.5986C124.481 88.8343 124.305 89.0508 124.104 89.2431C123.401 89.8719 122.349 89.7996 121.428 89.9851C120.781 90.1158 120.17 90.3839 119.636 90.7711C119.613 90.7895 119.597 90.8159 119.593 90.8451C119.589 90.8743 119.596 90.904 119.612 90.9284C119.764 91.1356 119.966 91.3017 120.198 91.4116C120.431 91.5214 120.688 91.5715 120.945 91.5572C121.042 91.6829 120.945 91.8716 120.813 91.9596C120.615 92.0948 120.339 92.131 120.306 92.4643C120.292 92.5801 120.315 92.6972 120.372 92.7991C120.52 93.0242 120.751 93.1831 121.015 93.2424C122.278 93.6292 123.657 92.95 124.607 92.0257C125.558 91.1013 126.24 89.9348 127.174 88.9931C127.69 88.4728 128.279 88.0263 128.81 87.5217C129.871 86.5156 130.705 85.2909 131.494 84.0631C131.755 83.7071 131.952 83.3087 132.075 82.8857C132.173 82.4675 132.129 82.0257 132.243 81.6107C132.391 81.0683 132.791 80.636 133.122 80.1801C133.775 79.2872 134.209 78.1962 134.122 77.0957C134.035 75.9953 133.353 74.9121 132.311 74.538C131.988 74.4099 131.632 74.3884 131.295 74.4767C130.867 74.6072 130.553 74.9593 130.261 75.2957L129.564 76.0959C129.391 76.273 129.253 76.4817 129.159 76.7106C129.114 76.826 129.103 76.9518 129.129 77.0729C129.154 77.194 129.215 77.3051 129.302 77.3929" fill="black"/>
<path d="M132.184 109.63C131.382 110.115 130.384 110.147 129.452 110.032C129.294 110.015 129.125 110.004 129.029 110.119C128.89 110.287 129.054 110.532 129.223 110.667C129.773 111.077 130.419 111.342 131.101 111.436C131.709 111.52 132.322 111.561 132.936 111.557C134.61 111.585 136.293 111.614 137.951 111.373C138.047 111.366 138.14 111.339 138.224 111.293C138.331 111.219 138.405 111.106 138.431 110.978C138.546 110.551 138.327 110.089 137.997 109.792C137.667 109.494 137.242 109.328 136.827 109.163L135.371 108.598C135.028 108.465 134.48 108.114 134.107 108.141C133.427 108.196 132.762 109.293 132.184 109.63Z" fill="#3F3D56"/>
<path opacity="0.05" d="M132.184 109.63C131.382 110.115 130.384 110.147 129.452 110.032C129.294 110.015 129.125 110.004 129.029 110.119C128.89 110.287 129.054 110.532 129.223 110.667C129.773 111.077 130.419 111.342 131.101 111.436C131.709 111.52 132.322 111.561 132.936 111.557C134.61 111.585 136.293 111.614 137.951 111.373C138.047 111.366 138.14 111.339 138.224 111.293C138.331 111.219 138.405 111.106 138.431 110.978C138.546 110.551 138.327 110.089 137.997 109.792C137.667 109.494 137.242 109.328 136.827 109.163L135.371 108.598C135.028 108.465 134.48 108.114 134.107 108.141C133.427 108.196 132.762 109.293 132.184 109.63Z" fill="black"/>
<path d="M133.2 90.3797C132.595 91.183 131.966 92.1089 132.116 93.1041C132.197 93.6401 132.498 94.1133 132.719 94.6085C132.996 95.2898 133.201 95.9979 133.331 96.7214C133.558 97.7731 133.785 98.828 133.924 99.8954C134.082 101.101 133.34 104.59 133.271 105.805C133.253 106.097 133.22 106.415 133.015 106.625C132.934 106.709 132.827 106.783 132.792 106.885C132.77 106.989 132.787 107.097 132.839 107.19C133.182 107.959 133.882 108.529 134.659 108.856C135.436 109.183 137.326 109.744 138.169 109.774C138.281 109.788 138.395 109.773 138.499 109.73C138.613 109.662 138.703 109.561 138.755 109.439C139.365 108.281 138.779 104.156 138.788 102.846C138.788 101.746 139.055 100.67 139.008 99.5794C138.968 98.7038 138.733 97.8501 138.648 96.9761C138.507 95.5439 138.771 94.107 139.036 92.6922C139.238 91.609 139.44 90.5243 139.699 89.4522C139.857 88.7997 140.041 88.1395 140.402 87.5657C140.688 87.1145 141.077 86.7388 141.403 86.308C142.309 85.1258 142.712 83.636 142.523 82.1609C142.504 82.0163 140.42 82.6876 140.238 82.7662C139.49 83.0828 138.802 83.5241 138.202 84.071C137.729 84.5269 137.342 85.1384 136.919 85.6509C136.322 86.374 135.733 87.103 135.151 87.8376C134.491 88.6813 133.841 89.5287 133.2 90.3797Z" fill="#464353"/>
<path opacity="0.05" d="M133.2 90.3278C132.595 91.1311 131.966 92.0571 132.116 93.0538C132.197 93.5883 132.498 94.0615 132.719 94.5567C132.996 95.238 133.201 95.9461 133.331 96.6695C133.558 97.7213 133.785 98.7761 133.924 99.8435C134.082 101.049 133.34 104.539 133.271 105.755C133.253 106.045 133.22 106.364 133.015 106.574C132.934 106.657 132.827 106.731 132.792 106.833C132.768 106.94 132.785 107.052 132.839 107.147C133.182 107.915 133.882 108.487 134.659 108.812C135.436 109.138 137.326 109.441 138.169 109.468C138.281 109.481 138.395 109.466 138.499 109.424C138.613 109.356 138.703 109.254 138.755 109.133C139.365 107.974 138.779 104.112 138.788 102.804C138.788 101.703 139.055 100.626 139.008 99.5354C138.968 98.6598 138.733 97.8061 138.648 96.9321C138.507 95.4999 138.771 94.0631 139.036 92.6498C139.238 91.565 139.44 90.4803 139.699 89.4082C139.857 88.7558 140.041 88.0955 140.402 87.5217C140.688 87.0721 141.077 86.6948 141.403 86.2735C142.308 85.0907 142.71 83.6014 142.523 82.1263C142.504 81.9801 140.42 82.6514 140.238 82.7316C139.489 83.0485 138.801 83.4909 138.202 84.0396C137.729 84.497 137.342 85.107 136.919 85.6116C136.322 86.3348 135.733 87.0642 135.151 87.7999C134.491 88.6384 133.841 89.481 133.2 90.3278Z" fill="black"/>
<path d="M126.459 72.6924C128.336 72.6924 129.859 71.177 129.859 69.3077C129.859 67.4384 128.336 65.923 126.459 65.923C124.581 65.923 123.059 67.4384 123.059 69.3077C123.059 71.177 124.581 72.6924 126.459 72.6924Z" fill="#FBBEBE"/>
<path d="M129.519 69.1662C129.833 69.6654 130.245 70.0966 130.73 70.4342C131.214 70.7718 131.762 71.0089 132.341 71.1313L132.085 72.0541C131.643 73.6466 131.138 75.3303 129.911 76.4339C130.045 75.8947 129.871 75.3146 129.565 74.8508C129.237 74.3997 128.849 73.9955 128.41 73.6498L126.454 71.9551C126.396 71.9122 126.346 71.8589 126.307 71.7979C126.26 71.6787 126.26 71.5461 126.307 71.4269C126.556 70.655 127.269 70.1692 127.845 69.6504C128.135 69.3801 128.395 69.0791 128.619 68.7528C129.02 68.1979 129.262 68.7528 129.519 69.1662Z" fill="#FBBEBE"/>
<path d="M121.979 65.9058L121.903 65.2769C122.44 65.4153 122.948 64.9625 123.291 64.4909C123.634 64.0193 123.953 63.4659 124.475 63.271C125.107 63.032 125.783 63.414 126.389 63.7285C127.069 64.1051 127.815 64.3479 128.587 64.4437C128.711 64.4479 128.833 64.468 128.951 64.5035C129.346 64.6434 129.533 65.1323 129.59 65.5835C129.647 66.0347 129.631 66.5063 129.827 66.9056C129.974 67.2074 130.228 67.4322 130.383 67.7294C130.798 68.5311 130.397 69.6253 130.836 70.4113L129.747 69.4162C129.646 69.325 129.505 69.2307 129.396 69.3077C129.287 69.3847 129.303 69.5011 129.267 69.6064C129.161 69.9208 128.774 70.0089 128.491 69.8878C128.208 69.7668 128.005 69.4995 127.798 69.259C127.316 68.693 126.743 68.1963 126.061 67.9542C125.766 67.8415 125.45 67.7928 125.134 67.8115C124.818 67.8303 124.51 67.9159 124.231 68.0626C123.722 68.3488 123.349 69.0153 122.727 69.0389C121.873 69.0703 121.517 67.4873 121.121 66.8616C121.265 66.7529 121.367 66.5972 121.408 66.4217C121.449 66.2462 121.427 66.062 121.345 65.901C121.415 65.8743 121.968 65.8036 121.979 65.9058Z" fill="#464353"/>
<path d="M136.149 109.603C135.477 110.199 134.604 110.523 133.704 110.51C133.475 110.51 133.158 110.554 133.156 110.782C133.16 110.85 133.183 110.915 133.223 110.971C133.508 111.442 133.958 111.793 134.486 111.955C134.975 112.103 135.5 112.077 136.011 112.052L137.504 111.975C137.785 111.959 138.068 111.945 138.349 111.911C138.63 111.876 138.933 111.818 139.227 111.776C139.946 111.673 140.674 111.639 141.4 111.673C141.592 111.681 141.815 111.673 141.935 111.529C142.055 111.384 141.99 111.123 141.946 110.914C141.858 110.483 141.946 110.032 141.864 109.6C141.72 108.84 141.065 108.26 140.342 107.985C139.67 107.731 138.48 107.44 137.843 107.863C137.161 108.319 136.75 109.061 136.149 109.603Z" fill="#3F3D56"/>
<path d="M137.627 84.1967C137.76 84.8256 138.365 85.2972 138.384 85.926C138.398 86.4354 138.032 86.8693 137.77 87.3016C137.519 87.7545 137.308 88.2278 137.138 88.7164C136.64 89.9846 136.022 91.2032 135.293 92.3558C134.943 92.9076 134.551 93.5081 134.632 94.1574C134.687 94.4603 134.794 94.7517 134.948 95.0189L135.998 97.0955C136.228 97.5103 136.409 97.951 136.535 98.4082C136.625 98.8028 136.634 99.2115 136.693 99.614C136.858 100.887 137.458 102.17 137.105 103.404C137.073 103.511 136.963 103.64 136.879 103.561C137.225 104.206 137.511 104.857 137.477 105.588C137.463 105.971 137.345 106.374 137.488 106.729C137.57 106.867 137.623 107.02 137.646 107.179C137.646 107.283 137.597 107.382 137.586 107.493C137.558 107.787 137.828 108.032 138.111 108.122C138.393 108.212 138.698 108.208 138.982 108.293C139.53 108.451 139.919 108.922 140.388 109.249C140.863 109.577 141.424 109.759 142.002 109.773C142.084 109.781 142.166 109.765 142.239 109.726C142.28 109.69 142.313 109.646 142.336 109.596C142.359 109.546 142.371 109.492 142.371 109.438C142.397 109.177 142.357 108.915 142.256 108.673C142.155 108.432 141.996 108.219 141.793 108.053C141.705 107.997 141.632 107.92 141.58 107.83C141.554 107.749 141.546 107.663 141.56 107.58C141.645 106.437 141.624 105.289 141.498 104.149C141.441 103.789 141.423 103.423 141.443 103.058C141.474 102.755 141.566 102.453 141.531 102.15C141.496 101.846 141.343 101.573 141.252 101.28C141.094 100.762 141.135 100.205 141.117 99.6612C141.089 98.7179 140.873 97.7935 140.656 96.8755C140.573 96.5155 140.478 96.1366 140.22 95.8693C140.003 95.643 139.65 95.4244 139.733 95.1226C139.777 95.0109 139.845 94.9097 139.931 94.8255C140.033 94.6987 140.108 94.5526 140.151 94.3961C140.194 94.2396 140.205 94.076 140.183 93.9153C140.275 93.9397 140.373 93.9311 140.46 93.8908C140.546 93.8506 140.616 93.7813 140.656 93.6952C142.363 92.895 143.744 91.2915 144.352 89.5119C144.386 89.3807 144.439 89.2552 144.51 89.1393C144.667 88.9192 144.942 88.8249 145.185 88.7023C145.95 88.3203 146.479 87.6018 146.964 86.8991C147.246 86.4904 147.527 86.0691 147.649 85.5896C147.715 85.2796 147.747 84.9633 147.744 84.6463L147.786 83.0083C147.795 82.9024 147.784 82.7959 147.755 82.6938C147.715 82.5961 147.654 82.5077 147.578 82.4344C147.115 81.9435 146.506 81.613 145.841 81.4912C145.392 81.411 144.934 81.4268 144.481 81.389C143.602 81.3167 142.733 81.0463 141.853 81.1092C140.47 81.2098 139.24 82.1641 138.588 83.3824C138.359 83.8179 138.119 84.1967 137.627 84.1967Z" fill="#464353"/>
<path d="M129.954 73.5444C129.974 73.797 129.94 74.0509 129.854 74.2896C129.747 74.5191 129.475 74.6967 129.24 74.604C129.311 74.4468 129.122 74.2597 128.946 74.2801C128.86 74.2993 128.779 74.3393 128.711 74.3965C128.644 74.4538 128.591 74.5266 128.558 74.6087C128.44 74.8423 128.401 75.1074 128.446 75.3649C128.501 75.6793 128.687 75.9937 128.638 76.3081C128.599 76.5753 128.402 76.8426 128.507 77.0941C128.575 77.2071 128.661 77.309 128.76 77.396C128.899 77.5654 128.967 77.7815 128.95 77.9995C128.933 78.2175 128.833 78.4207 128.67 78.5672L131.32 78.619C131.224 79.0608 131.421 79.512 131.648 79.9034C132.285 80.9793 133.163 81.894 134.213 82.5758C135.264 83.2577 136.459 83.6881 137.705 83.8336C137.637 83.8731 137.58 83.927 137.536 83.9913C137.492 84.0556 137.463 84.1288 137.451 84.2056C137.439 84.2824 137.444 84.3609 137.466 84.4354C137.488 84.51 137.526 84.5788 137.578 84.6369C137.793 84.8491 138.158 84.8224 138.428 84.6841C138.698 84.5457 138.911 84.3178 139.157 84.1417C139.592 83.8334 140.123 83.6906 140.655 83.7393C140.986 83.7707 141.308 83.8776 141.642 83.8965C142.624 83.9483 143.467 83.2456 144.407 82.9532C145.095 82.7426 145.874 82.7426 146.46 82.315C146.709 82.131 146.913 81.8292 146.84 81.5289C146.779 81.3566 146.681 81.1991 146.554 81.0667C146.221 80.6391 146.025 80.1235 145.788 79.6377C145.316 78.6749 144.666 77.8089 143.873 77.0847C143.275 76.5633 142.642 76.0837 141.978 75.6494C141.816 75.5293 141.644 75.4241 141.463 75.335C141.222 75.2568 140.987 75.1617 140.759 75.0504C140.443 74.8555 140.268 74.5112 140.029 74.233C139.503 73.623 138.696 73.3416 138.049 72.8621C137.615 72.5477 137.232 72.117 136.713 71.9613C136.462 71.8859 136.193 71.8796 135.941 71.8041C135.369 71.6312 134.952 71.125 134.39 70.9206C133.945 70.7634 133.455 70.8011 132.984 70.743C132.467 70.6791 131.972 70.492 131.543 70.1975C131.4 70.083 131.24 69.9918 131.069 69.9271C130.36 69.7117 130.301 71.0275 130.235 71.485C130.129 72.1846 129.954 72.8574 129.954 73.5444Z" fill="#E2AA25"/>
<path d="M130.645 77.9619C130.763 79.2463 129.789 80.4914 130.073 81.7506C130.133 82.0194 130.25 82.2741 130.293 82.5366C130.411 83.2834 129.963 83.9908 129.535 84.6149L125.866 89.9757C125.719 90.2114 125.543 90.4279 125.342 90.6202C124.639 91.249 123.587 91.1767 122.667 91.3622C122.02 91.4932 121.408 91.7613 120.874 92.1483C120.851 92.1666 120.836 92.193 120.831 92.2222C120.827 92.2514 120.834 92.2812 120.851 92.3055C121.002 92.513 121.204 92.6794 121.436 92.7893C121.669 92.8992 121.926 92.949 122.184 92.9343C122.28 93.0616 122.184 93.2487 122.051 93.3367C121.853 93.4735 121.577 93.5097 121.544 93.8429C121.53 93.9587 121.553 94.0759 121.61 94.1778C121.759 94.4024 121.989 94.5612 122.253 94.6211C123.516 95.0078 124.895 94.3287 125.846 93.4043C126.796 92.48 127.479 91.3135 128.413 90.3718C128.93 89.8515 129.519 89.405 130.048 88.9004C131.111 87.8942 131.935 86.6696 132.733 85.4418C132.993 85.0856 133.19 84.6872 133.314 84.2643C133.412 83.8462 133.367 83.4044 133.481 82.9894C133.63 82.447 134.029 82.0131 134.361 81.5588C135.013 80.6659 135.447 79.5749 135.36 78.4744C135.273 77.374 134.591 76.2908 133.549 75.9167C133.226 75.7878 132.87 75.7663 132.534 75.8553C132.107 75.9858 131.791 76.338 131.499 76.6744L130.803 77.4746C130.629 77.6513 130.492 77.8601 130.398 78.0893C130.353 78.2042 130.343 78.3298 130.368 78.4506C130.393 78.5715 130.453 78.6824 130.541 78.77" fill="#FBBEBE"/>
<path d="M132.502 72.6845C132.019 72.7128 131.489 72.76 131.148 73.1027C131.005 73.2601 130.89 73.4396 130.806 73.634C130.476 74.3053 130.154 75.0065 130.131 75.7532C130.11 76.3506 130.288 76.9338 130.375 77.5249C130.451 78.0154 130.258 78.5153 130.217 79.0121C130.816 78.8297 131.606 78.5813 132.149 78.2732C132.505 78.0414 132.883 77.8455 133.278 77.6884C133.854 77.4982 134.822 77.8252 135.366 78.094C135.396 77.7104 135.108 77.0454 135.138 76.6618C135.143 76.5013 135.172 76.3424 135.223 76.1902C135.305 76.0291 135.402 75.8759 135.512 75.7327C135.722 75.3953 135.818 75.0004 135.788 74.6049C135.758 74.2094 135.602 73.8337 135.343 73.5319C134.859 72.9879 134.097 72.7836 133.373 72.7002C132.916 72.6471 132.455 72.6308 131.996 72.6515" fill="#E2AA25"/>
<path d="M60.9558 61.6863L57.8416 57.1902C57.8416 57.1902 57.7832 56.0772 57.5795 55.8178C57.3758 55.5584 57.5353 54.9799 57.5353 54.9799C57.5353 54.9799 57.7548 54.6655 57.5653 54.6325C57.3758 54.5995 57.5353 53.8952 57.5353 53.8952L57.521 52.768C57.521 52.768 57.6963 51.6833 57.551 51.4239C57.5081 51.3535 57.4866 51.2722 57.4892 51.1899C57.4917 51.1076 57.5181 51.0278 57.5653 50.9601C57.5653 50.9601 57.739 50.3391 57.5653 50.1741C57.3915 50.009 57.4342 49.0469 57.4768 48.2797C57.5195 47.5126 57.172 47.0803 57.172 46.9655C57.172 46.8507 56.0224 45.722 56.0224 45.6198C56.0224 45.5176 55.2944 45.0995 54.8569 44.991C54.4195 44.8825 54.2032 44.7882 54.2174 44.73C54.2316 44.6719 53.5336 44.4423 53.5336 44.4423C53.5336 44.4423 52.9224 44.3983 52.6887 44.0949C52.455 43.7915 51.7412 43.7035 51.7238 43.7003L51.7096 43.6406C51.7096 43.6186 51.7017 43.5966 51.697 43.5745C51.7546 43.4831 51.8074 43.3886 51.8549 43.2916L51.896 43.2035C52.1517 43.2052 52.4017 43.1277 52.6113 42.9819C52.7146 42.8967 52.7989 42.7911 52.859 42.6717C52.9191 42.5524 52.9536 42.4219 52.9603 42.2886C52.9728 42.0213 52.9139 41.7556 52.7898 41.5183C52.6619 41.2589 52.4739 40.9885 52.5403 40.7055C52.5687 40.5845 52.6413 40.4776 52.6792 40.3581C52.7358 40.1248 52.6984 39.8788 52.575 39.6727C52.4645 39.4636 52.3113 39.2781 52.1881 39.0753C52.0319 38.8157 51.9274 38.5285 51.8802 38.2295C51.8714 38.0705 51.8334 37.9143 51.7681 37.7689C51.702 37.6664 51.6148 37.5791 51.5122 37.5127C51.0565 37.189 50.5067 37.0234 49.9473 37.041C49.5509 37.0536 49.1577 37.1605 48.7629 37.1118C48.5276 37.0715 48.2963 37.0116 48.0712 36.9326C47.5832 36.7879 47.0194 36.7298 46.5946 37.008C46.1698 37.2863 46.0009 37.8334 45.7119 38.2657C45.4576 38.643 45.0802 38.9605 44.8907 39.3661C44.8907 39.3661 44.8907 39.3504 44.8907 39.3441C44.843 39.4364 44.8064 39.5341 44.7817 39.6349C44.7275 39.9552 44.7497 40.2837 44.8465 40.5939C44.8678 40.7609 44.9519 40.9137 45.0818 41.0215C45.2255 41.1143 45.4229 41.0923 45.5903 41.1221L45.5713 41.2039C45.4009 42.0165 45.5435 42.8632 45.9709 43.5761C46.3982 44.2889 47.0791 44.8158 47.8785 45.0523C47.8785 45.0822 47.8785 45.1105 47.8785 45.1403C47.8782 45.2234 47.8729 45.3063 47.8627 45.3887C47.8627 45.3887 46.3988 45.0884 46.0056 45.2912C45.6124 45.494 44.8417 45.6528 44.7249 45.7629C44.608 45.8729 44.3174 45.7927 44.0553 46.4719C43.7932 47.151 43.7647 47.8443 43.4236 48.1634C43.0825 48.4825 42.9151 48.6979 42.8993 48.929C42.8835 49.1601 42.9435 49.2183 42.8125 49.2906C42.6814 49.3629 42.4966 49.6663 42.5503 49.7826C42.5704 49.8622 42.5661 49.9458 42.538 50.0229C42.5098 50.1 42.4591 50.1669 42.3924 50.215C42.3233 50.2633 42.2682 50.3287 42.2325 50.4049C42.1967 50.481 42.1816 50.5651 42.1887 50.6488C42.1887 50.6488 42.1003 50.9633 41.8965 51.0403C41.6928 51.1173 41.5618 51.5889 41.5618 51.5889L40.9017 52.3435L39.5941 50.9035C39.4959 50.7959 39.3588 50.7313 39.213 50.724C39.0671 50.7166 38.9242 50.767 38.8156 50.8642L38.1728 51.4396C37.9251 51.4995 37.7012 51.632 37.5301 51.82C37.3908 51.9639 37.278 52.131 37.1969 52.3137L36.8463 52.6281C36.7355 52.7647 36.6678 52.9308 36.6515 53.1056C36.6352 53.2804 36.6711 53.4561 36.7547 53.6106L37.5933 54.5334V54.5413C37.2962 54.5673 37.0139 54.6818 36.7831 54.8699C35.5324 55.9703 35.5198 56.9811 35.7061 57.4433C35.8925 57.9055 37.4811 59.6835 37.4811 59.6835C37.4811 59.6835 38.4034 60.8767 39.7346 61.5103L39.7252 61.5213C39.6978 61.5497 39.6719 61.5796 39.6478 61.6109L39.6257 61.6392L39.6051 61.6675L39.5815 61.7021C39.5751 61.7111 39.5693 61.7206 39.5641 61.7303L39.5388 61.7712C39.533 61.7803 39.5277 61.7898 39.523 61.7995C39.512 61.8184 39.5025 61.8372 39.493 61.8561C39.4895 61.8622 39.4864 61.8685 39.4835 61.875C39.4709 61.9001 39.4583 61.9253 39.4472 61.9536L39.4346 61.9819C39.4267 62.0007 39.4204 62.0196 39.4125 62.04C39.4076 62.0524 39.4033 62.065 39.3998 62.0778L39.3809 62.1344C39.3758 62.1477 39.3715 62.1614 39.3683 62.1752C39.3683 62.1957 39.3556 62.2161 39.3509 62.2381C39.3462 62.2601 39.343 62.2633 39.3398 62.2774C39.3367 62.2916 39.324 62.345 39.3177 62.3812C39.3177 62.3938 39.3177 62.4079 39.3098 62.4221C39.3019 62.4362 39.3019 62.4708 39.2972 62.4959C39.2925 62.5211 39.2972 62.5305 39.2972 62.5494L39.2877 62.6201V62.6767C39.2877 62.7035 39.2877 62.7302 39.2798 62.7585C39.2719 62.7868 39.2798 62.7915 39.2798 62.8088C39.2798 62.8544 39.2798 62.9 39.2798 62.9487C39.2514 64.6402 39.3509 64.8855 39.3509 64.8855C39.4158 65.0417 39.5218 65.1777 39.6576 65.2792C39.7935 65.3807 39.9543 65.444 40.1231 65.4624C40.206 65.4689 40.2893 65.4647 40.371 65.4499C41.1291 65.3194 42.8977 65.016 43.5294 65.1354C43.9069 65.2046 44.6033 65.1009 45.0991 65.0081L45.2302 64.983L45.3202 65.2706L45.6076 65.192L45.8524 65.332L46.0103 65.4216C46.2977 66.39 47.4632 66.0598 47.4632 66.0598L47.7395 66.217L50.5489 66.2893C50.8643 66.4785 51.1975 66.6365 51.5438 66.761C51.5896 66.7758 51.6366 66.7863 51.6844 66.7924C51.947 66.8137 52.2107 66.8184 52.474 66.8066C52.6887 66.8066 52.8545 66.7924 52.8545 66.7924C52.8545 66.7924 52.8261 66.0331 52.7851 65.1826C53.6559 65.1612 54.5248 65.0903 55.3876 64.9704C56.8878 64.7094 57.5131 63.3511 57.7437 62.6249C57.8127 62.9215 57.8618 63.2225 57.8906 63.5257C57.9519 63.7923 58.0299 64.0548 58.1243 64.3117C58.2047 64.517 58.3108 64.7113 58.4401 64.8902C59.5456 64.5145 58.876 63.947 58.6438 63.7049C58.4117 63.4628 58.8018 63.2568 58.8018 63.2568C58.8018 63.2568 59.1081 63.054 59.0781 62.867C59.0481 62.6799 59.0339 62.4771 60.0256 62.4912C61.0174 62.5054 60.9558 61.6863 60.9558 61.6863ZM45.5871 52.4567C45.5997 52.5385 45.745 53.4298 45.8619 53.6641C45.8968 53.8187 45.9079 53.9777 45.8951 54.1357C45.3092 54.0885 44.698 54.0634 44.698 54.0634C44.7152 54.0846 44.7261 54.1102 44.7296 54.1373L44.6364 54.1168L44.5038 54.0854L45.584 52.4489L45.5871 52.4567ZM43.4457 55.8461L44.4612 56.0033L44.5464 56.0159C44.5177 56.1716 44.5003 56.3293 44.4943 56.4875C44.4943 56.5032 44.5164 56.5205 44.5496 56.541C44.5355 56.6203 44.5291 56.7009 44.5306 56.7815C44.5464 56.8601 45.0202 57.033 45.565 57.1761C45.5571 57.2059 45.5508 57.2342 45.5429 57.2594C45.0612 57.0079 44.3048 56.89 44.218 56.7029C44.1311 56.5158 41.5539 55.6197 41.5539 55.6197L41.298 55.4924L41.9755 55.6197L42.1618 55.6009C42.584 55.7102 43.0129 55.7921 43.4457 55.8461Z" fill="url(#paint0_linear_742_5088)"/>
<path d="M57.6433 62.3151C57.6433 62.3151 57.2406 64.7424 55.1924 65.1008C53.1442 65.4593 46.3063 65.3885 46.3063 65.3885C46.3063 65.3885 42.3962 64.8273 40.9828 61.5401C39.5695 58.2529 38.6599 56.9434 39.8774 56.8868C41.095 56.8302 47.6249 59.0877 47.9992 59.1128C48.3735 59.138 58.0049 54.1152 57.6433 62.3151Z" fill="#65617D"/>
<path opacity="0.05" d="M57.6433 62.3151C57.6433 62.3151 57.2406 64.7424 55.1924 65.1008C53.1442 65.4593 46.3063 65.3885 46.3063 65.3885C46.3063 65.3885 42.3962 64.8273 40.9828 61.5401C39.5695 58.2529 38.6599 56.9434 39.8774 56.8868C41.095 56.8302 47.6249 59.0877 47.9992 59.1128C48.3735 59.138 58.0049 54.1152 57.6433 62.3151Z" fill="black"/>
<path d="M39.3075 65.0175C39.371 65.173 39.4755 65.3084 39.6101 65.4094C39.7447 65.5105 39.9042 65.5733 40.0718 65.5913C40.1547 65.5964 40.2379 65.5917 40.3197 65.5772C41.0698 65.4483 42.8291 65.1464 43.4497 65.2628C43.8224 65.3304 44.5125 65.2282 45.0036 65.137C45.3305 65.0757 45.5705 65.0175 45.5705 65.0175C45.5705 65.0175 44.9925 63.1075 44.9215 63.0509C44.8504 62.9943 42.3237 61.4788 42.3237 61.4788L40.3245 61.3358C40.0553 61.3758 39.8121 61.5177 39.6454 61.7319C39.4354 61.9866 39.2538 62.4032 39.2411 63.087C39.208 64.7707 39.3075 65.0175 39.3075 65.0175Z" fill="#3F3D56"/>
<path opacity="0.05" d="M39.3079 65.0176C39.3713 65.173 39.4759 65.3084 39.6105 65.4095C39.7451 65.5105 39.9046 65.5733 40.0722 65.5914C39.8764 65.3397 39.695 65.0773 39.5289 64.8053L39.54 63.4125C39.5003 63.0305 39.551 62.6445 39.6881 62.2855C39.8252 61.9265 40.0449 61.6045 40.3296 61.3452C40.3296 61.3452 39.2763 61.416 39.2463 63.0965C39.2163 64.777 39.3079 65.0176 39.3079 65.0176Z" fill="black"/>
<path opacity="0.1" d="M47.9794 61.9708L49.8413 60.5198L52.7691 57.6477L51.9795 57.6115C51.8611 57.687 51.5295 57.9259 51.5168 58.212C51.5026 58.5626 50.7272 58.2372 50.3214 58.4368C49.9155 58.6365 47.9415 61.1565 47.5957 61.1392C47.2499 61.1219 46.9751 60.9647 46.8298 61.21L46.8203 61.2257L47.9794 61.9708Z" fill="black"/>
<path opacity="0.1" d="M39.6406 61.7351C39.707 61.7665 39.7749 61.798 39.8428 61.8263C41.2561 62.4299 43.0011 63.6939 43.1322 63.9234C43.2112 64.0633 44.2234 64.6749 45.0036 65.1339C45.3304 65.0726 45.5705 65.0144 45.5705 65.0144C45.5705 65.0144 44.9925 63.1044 44.9214 63.0478C44.8504 62.9912 42.3237 61.4757 42.3237 61.4757L40.3244 61.3326C40.0526 61.3731 39.8073 61.5175 39.6406 61.7351Z" fill="black"/>
<path d="M35.7175 57.6194C35.9039 58.0784 37.4768 59.8454 37.4768 59.8454C37.4768 59.8454 38.4716 61.1377 39.8866 61.7319C41.3015 62.3261 43.045 63.5995 43.1745 63.829C43.2582 63.9768 44.3857 64.6528 45.1785 65.1166L45.3569 65.2203L45.7501 65.4483L45.9586 65.5662C45.9586 65.5662 46.4418 65.181 46.9235 64.7927C47.4051 64.4044 47.871 64.024 47.871 64.0067C47.871 63.9894 48.0731 63.4753 48.0289 63.447C47.9847 63.4187 47.9073 63.2332 47.7241 63.0021C47.5308 62.7459 47.2791 62.539 46.9898 62.3985C46.5712 62.1843 46.2374 61.8359 46.0423 61.4096C46.0423 61.4096 45.9791 61.364 45.8844 61.3027C45.6879 61.1684 45.4685 61.0709 45.2369 61.015C44.921 60.9757 44.3273 60.3296 44.3273 60.3296C44.0964 60.18 43.9038 59.9786 43.7651 59.7417C43.6072 59.4273 41.3758 57.8961 41.1689 57.7546L46.5918 61.2226L47.8899 62.0526L49.7518 60.6032L52.6796 57.731L51.7131 57.687C50.2919 57.6257 47.7652 57.5298 47.4493 57.6021C47.1906 57.6614 46.924 57.6789 46.6597 57.654C46.6597 57.654 45.9396 57.6854 45.4627 57.4354C44.9858 57.1855 44.2357 57.0676 44.1488 56.8821C44.062 56.6966 41.51 55.8068 41.51 55.8068C41.51 55.8068 38.0358 53.969 36.793 55.0601C35.5501 56.1511 35.5296 57.1572 35.7175 57.6194Z" fill="#65617D"/>
<path d="M46.9258 47.0787L47.3727 48.558L47.9507 51.8892L50.0715 52.0323L50.6779 51.0261L51.2907 50.0137C51.2907 50.0137 51.6728 48.668 51.9476 47.3664C52.1892 46.214 52.3487 45.0947 52.085 44.9737C51.8497 44.8668 51.6965 44.4785 51.5954 44.0603C51.5828 44.01 51.5718 43.9566 51.5623 43.9031C51.4916 43.5497 51.4441 43.1921 51.4202 42.8325C51.4202 42.8325 46.9779 42.603 47.5985 44.4266C47.7092 44.7381 47.7658 45.0661 47.7659 45.3966C47.7659 45.4815 47.7659 45.5648 47.7501 45.6434C47.7193 45.9262 47.6302 46.1997 47.4884 46.4466C47.3465 46.6936 47.155 46.9088 46.9258 47.0787Z" fill="#EE8E9E"/>
<path d="M46.0039 46.835L46.1618 49.3504L46.5219 51.4899L46.9262 52.4819L47.2878 57.9024C47.2878 57.9024 50.762 58.3033 51.6116 57.8945C51.6743 57.8706 51.7289 57.8298 51.7695 57.7766C52.7913 56.2407 52.4565 51.7918 52.4565 51.7918L52.845 48.9196L52.586 47.4293L51.9543 47.3633L51.4711 47.3114C51.4711 47.3114 51.3621 47.445 51.2042 47.6525C50.7762 48.2137 49.9898 49.3205 50.0435 49.7811C50.1145 50.4099 49.9566 51.0592 49.7103 51.1598C49.4639 51.2604 49.2634 51.4333 49.2207 51.2604C49.1593 51.1155 49.1439 50.9553 49.1765 50.8014C49.2207 50.5561 48.9886 49.8094 48.9886 49.8094C48.9886 49.8094 48.6001 48.9338 48.6285 48.5612C48.6569 48.1886 48.5859 47.7563 48.4706 47.6557C48.3553 47.5551 48.1958 47.4544 48.3253 46.9954C48.4548 46.5363 47.7568 45.6418 47.7568 45.6418L46.0039 46.835Z" fill="#E3E8F4"/>
<path opacity="0.1" d="M50.5981 53.1107L50.7434 57.404L51.5757 57.8646C51.6381 57.8397 51.6927 57.7984 51.7336 57.7451C52.7553 56.2092 52.4205 51.7603 52.4205 51.7603L52.8106 48.8881L52.55 47.3978L51.9183 47.3318C52.1615 46.1794 52.3195 45.0617 52.0557 44.9391C51.8204 44.8322 51.6673 44.4439 51.5678 44.0273L51.1177 47.0645C51.1177 47.0645 51.1556 47.3381 51.1682 47.621C51.1869 47.7999 51.1746 47.9807 51.1319 48.1555C51.0736 48.3906 51.0639 48.635 51.1035 48.874C50.8429 49.3299 50.7134 50.1756 50.6503 50.9915C50.565 52.0763 50.5981 53.1107 50.5981 53.1107Z" fill="black"/>
<path d="M51.5799 43.9518C51.5799 43.9518 52.3079 44.0414 52.5385 44.3433C52.769 44.6451 53.3754 44.6891 53.3754 44.6891C53.3754 44.6891 54.0671 44.9187 54.0529 44.9753C54.0387 45.0319 54.2551 45.1199 54.6846 45.2347C55.1141 45.3494 55.839 45.766 55.839 45.8635C55.839 45.9609 56.9776 47.0834 56.9776 47.1982C56.9776 47.3129 57.3234 47.7437 57.2808 48.5045C57.2381 49.2654 57.1939 50.2338 57.3676 50.391C57.5413 50.5482 57.3676 51.1661 57.3676 51.1661C57.321 51.2333 57.2948 51.3126 57.2923 51.3943C57.2897 51.476 57.311 51.5567 57.3534 51.6267C57.4971 51.8845 57.3234 52.9614 57.3234 52.9614L57.3392 54.0822C57.3392 54.0822 57.1813 54.785 57.3676 54.8148C57.554 54.8447 57.3392 55.1591 57.3392 55.1591C57.3392 55.1591 57.1813 55.7329 57.3818 55.9923C57.5824 56.2517 57.6408 57.3553 57.6408 57.3553L60.7282 61.8215C60.7282 61.8215 60.7724 62.6406 59.7917 62.6264C58.811 62.6123 58.8236 62.8135 58.8537 62.999C58.8837 63.1845 58.5789 63.3873 58.5789 63.3873C58.5789 63.3873 58.1904 63.5885 58.421 63.8322C58.6515 64.0759 59.3148 64.6371 58.2188 65.0097C58.0897 64.8324 57.9836 64.6396 57.903 64.4359C57.8101 64.1825 57.7331 63.9237 57.6724 63.6608C57.6724 63.6608 57.5714 62.5683 57.3692 62.4252C57.1671 62.2821 57.1955 61.592 57.1955 61.592C57.1955 61.592 57.4845 61.0324 57.0802 60.806C56.676 60.5796 50.8203 57.3474 50.8203 57.3474L50.6782 53.0525C50.6782 53.0525 50.5771 49.8785 51.1835 48.8158C51.1439 48.5769 51.1536 48.3325 51.212 48.0974C51.313 47.8396 51.1977 47.0064 51.1977 47.0064L51.5799 43.9518Z" fill="#3F3D56"/>
<path opacity="0.1" d="M47.7995 45.6811C47.7995 45.6811 46.3498 45.384 45.9597 45.5852C45.5697 45.7865 44.8069 45.9437 44.6964 46.0569C44.5858 46.17 44.2937 46.0867 44.0331 46.7611C43.7725 47.4356 43.7457 48.1257 43.4125 48.4417C43.0793 48.7577 42.9087 48.973 42.8945 49.2026C42.8803 49.4321 42.9372 49.4902 42.8077 49.561C42.6782 49.6317 42.4918 49.9351 42.5471 50.0499C42.6024 50.1647 45.5476 52.6925 45.5476 52.6925C45.5476 52.6925 45.6928 53.6547 45.8223 53.8983C45.9518 54.142 45.6786 57.5031 45.3896 57.7326C45.1006 57.9621 47.3305 57.9433 47.3305 57.9433C47.3305 57.9433 47.4315 55.7424 47.5184 55.6229C47.6052 55.5034 47.4599 53.1532 47.4599 53.1532C47.4599 53.1532 47.4457 51.1425 47.6337 50.6111C47.8216 50.0798 47.7916 48.3128 47.7916 48.3128C47.7916 48.3128 47.9574 47.2532 48.1595 47.0064C48.3617 46.7596 47.7995 45.6811 47.7995 45.6811Z" fill="black"/>
<path d="M47.7571 45.6387C47.7571 45.6387 46.3074 45.3416 45.9173 45.5412C45.5273 45.7409 44.763 45.9012 44.654 46.0128C44.545 46.1245 44.2497 46.0411 43.9907 46.7171C43.7317 47.3931 43.7017 48.0801 43.3701 48.3961C43.0385 48.7121 42.8648 48.9275 42.8506 49.157C42.8363 49.3865 42.8948 49.4447 42.7637 49.517C42.6326 49.5893 42.4479 49.8896 42.5047 50.0043C42.5616 50.1191 45.5052 52.647 45.5052 52.647C45.5052 52.647 45.6489 53.6091 45.78 53.8528C45.911 54.0964 45.6347 57.4575 45.3457 57.687C45.0567 57.9165 47.2944 57.8961 47.2944 57.8961C47.2944 57.8961 47.3955 55.6952 47.4807 55.5773C47.566 55.4594 47.4239 53.106 47.4239 53.106C47.4239 53.106 47.4097 51.0969 47.5976 50.5656C47.7855 50.0342 47.7634 48.2672 47.7634 48.2672C47.7634 48.2672 47.9292 47.2076 48.1314 46.9608C48.3335 46.714 47.7571 45.6387 47.7571 45.6387Z" fill="#3F3D56"/>
<path opacity="0.1" d="M47.6045 44.4235C47.7152 44.735 47.7718 45.063 47.7719 45.3934C48.4805 45.6 49.238 45.5653 49.9246 45.2948C50.6111 45.0243 51.1873 44.5334 51.5619 43.9C51.4912 43.5466 51.4437 43.1889 51.4198 42.8294C51.4198 42.8294 46.9838 42.5983 47.6045 44.4235Z" fill="black"/>
<path d="M45.4121 42.1534C45.4115 42.9962 45.7359 43.8072 46.3183 44.4189C46.9007 45.0307 47.6967 45.3966 48.5422 45.4413C49.3877 45.486 50.2182 45.2059 50.8623 44.6589C51.5065 44.112 51.9152 43.3398 52.0043 42.5016C52.0933 41.6634 51.8558 40.8232 51.3408 40.1542C50.8258 39.4852 50.0726 39.0384 49.2364 38.9061C48.4003 38.7737 47.545 38.9658 46.8469 39.4428C46.1489 39.9198 45.6613 40.6452 45.4848 41.4695C45.4364 41.6943 45.412 41.9235 45.4121 42.1534Z" fill="#EE8E9E"/>
<path d="M43.2911 49.7685L42.5015 50.0122C42.5217 50.0914 42.5174 50.1749 42.4893 50.2518C42.4611 50.3286 42.4104 50.3952 42.3436 50.4429C42.2749 50.4906 42.2202 50.5557 42.1849 50.6313C42.1497 50.707 42.1353 50.7906 42.1431 50.8737C42.1431 50.8737 42.0562 51.1881 41.8541 51.262C41.6519 51.3358 41.5224 51.8075 41.5224 51.8075L40.8592 52.5683C40.8592 52.5683 40.6128 52.7696 40.657 52.8702C40.7013 52.9708 40.3965 52.9991 40.3965 52.9991L40.5544 55.5553L41.9251 55.8147L42.7763 55.7282L43.468 55.4704L44.0744 55.1104L44.3476 54.4077L45.5604 52.5683L43.2911 49.7685Z" fill="#3F3D56"/>
<path d="M40.594 53.1956C40.594 53.1956 38.8348 50.6693 37.5209 52.0322C36.207 53.3952 38.0547 55.6087 38.4874 55.5364C38.9201 55.4641 40.9841 55.3493 40.9841 55.3493L40.594 53.1956Z" fill="#EE8E9E"/>
<path d="M44.7379 52.1032L36.9666 48.1546C36.847 48.0938 36.7005 48.1411 36.6394 48.2602L33.6091 54.1705C33.548 54.2896 33.5955 54.4354 33.7152 54.4962L41.4864 58.4448C41.6061 58.5056 41.7525 58.4584 41.8136 58.3393L44.8439 52.4289C44.905 52.3098 44.8575 52.164 44.7379 52.1032Z" fill="#3F3D56"/>
<path d="M44.0155 52.4543L37.1191 48.9502L34.4664 54.124L41.3628 57.6281L44.0155 52.4543Z" fill="#E2AA25"/>
<path d="M35.5267 51.5261C35.5965 51.5261 35.6531 51.4698 35.6531 51.4003C35.6531 51.3308 35.5965 51.2745 35.5267 51.2745C35.457 51.2745 35.4004 51.3308 35.4004 51.4003C35.4004 51.4698 35.457 51.5261 35.5267 51.5261Z" fill="#E6E8EC"/>
<path d="M42.9913 55.4169C43.1073 55.4169 43.2013 55.3233 43.2013 55.2079C43.2013 55.0924 43.1073 54.9988 42.9913 54.9988C42.8753 54.9988 42.7812 55.0924 42.7812 55.2079C42.7812 55.3233 42.8753 55.4169 42.9913 55.4169Z" fill="#E6E8EC"/>
<path d="M39.4551 53.7269C39.4393 55.6228 43.3778 56.0253 43.3778 56.0253L44.3838 56.1825L44.8354 56.2532L45.0233 54.4013C45.0233 54.4013 44.8165 54.3699 44.5591 54.3102C44.1769 54.2221 43.6826 54.0696 43.58 53.8543C43.4142 53.4974 39.4662 51.831 39.4551 53.7269Z" fill="#EE8E9E"/>
<path opacity="0.1" d="M45.4844 41.4696C45.5749 41.4762 45.6603 41.514 45.726 41.5765C45.8365 41.6944 45.8429 41.9035 45.9881 41.9758C46.0425 41.9986 46.1023 42.0051 46.1603 41.9946C46.544 41.9412 46.7651 41.5104 47.1346 41.391C47.3494 41.336 47.5767 41.3554 47.7789 41.446C47.8611 41.4725 47.9351 41.5196 47.9937 41.5827C48.1169 41.74 48.03 41.9758 48.0869 42.1676C48.1658 42.4348 48.4864 42.5401 48.7628 42.5747C49.0391 42.6093 49.3518 42.6297 49.5366 42.8373C49.5977 42.9151 49.6416 43.0049 49.6653 43.1008C49.689 43.1968 49.6919 43.2966 49.674 43.3938C49.6574 43.4614 49.6574 43.5321 49.674 43.5997C49.7498 43.8151 50.124 43.7821 50.2219 43.6123C50.2946 43.4881 50.2725 43.3859 50.4415 43.3513C50.5622 43.3418 50.6833 43.3629 50.7936 43.4126C51.0876 43.5131 51.3972 43.5604 51.708 43.5525C51.9056 43.1329 52.0119 42.6764 52.0199 42.2131C52.028 41.7497 51.9375 41.2898 51.7545 40.8637C51.5715 40.4375 51.3001 40.0547 50.9581 39.7402C50.616 39.4258 50.2111 39.1869 49.7698 39.0392C49.3285 38.8914 48.8609 38.8382 48.3975 38.883C47.9341 38.9278 47.4855 39.0696 47.081 39.2991C46.6765 39.5285 46.3253 39.8405 46.0504 40.2146C45.7755 40.5886 45.5832 41.0163 45.486 41.4696H45.4844Z" fill="black"/>
<path d="M49.6713 43.5132C49.6548 43.4456 49.6548 43.3749 49.6713 43.3073C49.6893 43.2104 49.6864 43.1108 49.6627 43.0151C49.639 42.9194 49.5951 42.8298 49.5339 42.7523C49.3491 42.5433 49.038 42.5244 48.7601 42.4882C48.4822 42.4521 48.1632 42.3483 48.0842 42.0811C48.0274 41.8893 48.1142 41.655 47.991 41.4978C47.9334 41.4336 47.8591 41.3863 47.7763 41.3611C47.5741 41.2701 47.347 41.2501 47.132 41.3045C46.7624 41.424 46.5413 41.8547 46.1576 41.9081C46.0996 41.9194 46.0396 41.9128 45.9855 41.8893C45.8402 41.817 45.8276 41.6079 45.7233 41.49C45.548 41.306 45.2148 41.4255 45.0016 41.2888C44.8723 41.1813 44.7888 41.0291 44.7679 40.8627C44.6724 40.5544 44.6508 40.2282 44.7048 39.9101C44.8295 39.3771 45.3096 39.0108 45.6144 38.5534C45.9002 38.1289 46.0613 37.5913 46.4892 37.3099C46.9172 37.0285 47.4683 37.0913 47.9531 37.2344C48.176 37.3136 48.4053 37.3735 48.6385 37.4136C49.0286 37.4608 49.4202 37.3554 49.8118 37.3429C50.3669 37.325 50.9123 37.4909 51.3626 37.8145C51.4642 37.8804 51.5503 37.9673 51.6153 38.0692C51.6804 38.2136 51.7189 38.3686 51.729 38.5266C51.7751 38.8234 51.8786 39.1085 52.0338 39.3661C52.1538 39.5689 52.307 39.7513 52.4159 39.9604C52.5378 40.1653 52.5751 40.4093 52.5202 40.6411C52.4823 40.759 52.4096 40.8659 52.3812 40.9869C52.318 41.2667 52.5028 41.5356 52.6291 41.7934C52.7521 42.0294 52.8103 42.2934 52.7981 42.559C52.7914 42.6913 52.7572 42.8208 52.6976 42.9393C52.6381 43.0578 52.5546 43.1628 52.4523 43.2475C52.2378 43.3957 51.9821 43.4732 51.7211 43.4692C51.4046 43.4788 51.0889 43.4314 50.7894 43.3293C50.6788 43.2803 50.5579 43.2592 50.4372 43.268C50.2682 43.3026 50.2903 43.4048 50.2177 43.5289C50.1214 43.6956 49.7487 43.7286 49.6713 43.5132Z" fill="#3F3D56"/>
<path opacity="0.1" d="M47.8918 62.0558L49.7537 60.6063L52.6815 57.7341L51.7151 57.6901C51.6016 57.7923 51.5292 57.9319 51.5113 58.0831C51.4971 58.4337 50.7217 58.1067 50.3159 58.3079C49.91 58.5092 47.9361 61.0276 47.5902 61.0103C47.2444 60.993 46.9696 60.8358 46.8243 61.0795L46.8148 61.0952C46.7572 61.1613 46.6797 61.2071 46.5938 61.2257L47.8918 62.0558Z" fill="black"/>
<path d="M44.1406 61.9551L45.0755 64.9279L45.2224 65.3995L45.6677 65.2785L46.65 65.0097L51.0212 63.8149C51.5718 63.7911 52.1106 63.6484 52.6003 63.3967C53.4267 62.9358 54.3724 62.7305 55.3165 62.8072C55.8945 62.8606 56.5373 62.6123 57.071 61.6313C57.071 61.6313 58.2823 58.0706 55.225 57.0503C52.1676 56.03 52.0208 57.5926 52.0208 57.5926L51.9781 57.6178C51.8597 57.6933 51.5281 57.9322 51.5154 58.2183C51.5012 58.5689 50.7258 58.2435 50.32 58.4431C49.9141 58.6428 47.9402 61.1628 47.5943 61.1455C47.2485 61.1282 46.9737 60.971 46.8284 61.2163L46.8189 61.232C46.7115 61.3782 46.391 61.4128 46.1778 61.4175C46.1115 61.421 46.0451 61.421 45.9788 61.4175L45.9504 61.4253L45.7293 61.4914L44.1406 61.9551Z" fill="#65617D"/>
<path opacity="0.1" d="M44.3828 56.1841L44.8345 56.2548L45.0224 54.403C45.0224 54.403 44.8155 54.3715 44.5581 54.3118C44.626 54.5712 44.4712 55.5694 44.3828 56.1841Z" fill="black"/>
<path opacity="0.1" d="M56.1794 47.5283C56.1794 47.5283 57.5202 47.14 57.1885 50.9318C56.9583 53.2461 55.9701 55.4209 54.376 57.121C54.376 57.121 51.5193 58.3693 50.2354 58.168C48.9515 57.9668 48.015 57.9244 48.015 57.9244C47.6105 57.721 47.1679 57.6038 46.7154 57.5801C45.9953 57.5518 44.4808 57.1085 44.4508 56.9623C44.4208 56.8161 44.8267 54.7079 44.6529 54.5507C44.6529 54.5507 46.6727 54.6325 46.8749 54.7771C47.077 54.9217 47.366 54.8195 47.5823 54.7771C47.7987 54.7346 48.4619 54.1624 49.7743 54.6655C49.7743 54.6655 50.2212 54.7079 50.3949 54.5932C50.5365 54.5275 50.6978 54.5174 50.8465 54.5649C50.9588 54.5277 51.0652 54.4748 51.1624 54.4077C51.205 54.3511 51.5524 54.4077 51.5524 54.4077C51.5731 54.4169 51.5955 54.4215 51.6182 54.4213C51.6408 54.4211 51.6632 54.4161 51.6837 54.4066C51.7042 54.397 51.7224 54.3832 51.7371 54.366C51.7518 54.3488 51.7626 54.3287 51.7688 54.307C51.8144 54.1899 51.8832 54.083 51.9709 53.9926C51.9709 53.9926 52.3594 51.8106 53.0953 50.9916C53.154 50.9404 53.1992 50.8757 53.2267 50.803C53.2543 50.7303 53.2634 50.652 53.2532 50.575C53.1932 50.3423 54.4487 47.0677 56.1794 47.5283Z" fill="black"/>
<path d="M56.1426 47.2359C56.1426 47.2359 57.4849 46.8491 57.1532 50.6394C56.9236 52.9539 55.9352 55.1288 54.3407 56.8286C54.3407 56.8286 51.484 58.0784 50.2001 57.8772C48.9162 57.676 47.9782 57.6288 47.9782 57.6288C47.5742 57.4253 47.1321 57.3081 46.6801 57.2845C45.9584 57.2547 44.4439 56.8129 44.4155 56.6667C44.3871 56.5205 44.7898 54.4124 44.6176 54.2536C44.6176 54.2536 46.6374 54.3369 46.8396 54.4815C47.0417 54.6262 47.3291 54.5224 47.5455 54.4815C47.7618 54.4407 48.4251 53.8669 49.739 54.3683C49.739 54.3683 50.1859 54.4124 50.358 54.2976C50.4997 54.2324 50.6606 54.2218 50.8096 54.2677C50.9216 54.2297 51.0278 54.1768 51.1255 54.1105C51.1681 54.0524 51.514 54.1105 51.514 54.1105C51.5346 54.1197 51.5571 54.1244 51.5797 54.1242C51.6024 54.124 51.6247 54.119 51.6452 54.1094C51.6657 54.0999 51.684 54.0861 51.6986 54.0689C51.7133 54.0517 51.7241 54.0316 51.7303 54.0099C51.776 53.8927 51.8447 53.7859 51.9324 53.6955C51.9324 53.6955 52.3225 51.5135 53.0584 50.6944C53.1172 50.6433 53.1623 50.5785 53.1899 50.5058C53.2174 50.4332 53.2265 50.3548 53.2163 50.2778C53.1579 50.0514 54.4118 46.7815 56.1426 47.2359Z" fill="#3F3D56"/>
<path opacity="0.1" d="M45.7246 61.4835L47.6291 63.7787L47.6417 63.7661C47.656 63.7221 47.8439 63.2348 47.7997 63.2049C47.7554 63.1751 47.4254 62.4582 46.7621 62.1563C46.4248 61.9926 46.1415 61.7362 45.9457 61.4175L45.7246 61.4835Z" fill="black"/>
<path opacity="0.1" d="M45.7512 65.4562L45.9596 65.5741C45.9596 65.5741 46.4429 65.1889 46.9245 64.8006C47.4062 64.4123 47.872 64.0319 47.872 64.0146C47.872 63.9973 48.0742 63.4832 48.03 63.4549C47.9857 63.4266 47.9084 63.2411 47.7252 63.01C46.4334 62.65 47.2514 63.5429 47.3651 63.5838C47.3651 63.5838 45.7938 63.2238 45.707 64.9295C45.6995 65.1062 45.7143 65.2831 45.7512 65.4562Z" fill="black"/>
<path d="M47.345 66.1777L47.6198 66.335L50.4039 66.4057C50.716 66.5947 51.0461 66.7526 51.3893 66.8773C51.4348 66.8908 51.4812 66.9008 51.5283 66.9072C51.7867 66.9282 52.0462 66.9329 52.3052 66.9213C52.5184 66.9213 52.6827 66.9072 52.6827 66.9072C52.6827 66.9072 52.5516 63.4125 52.4521 63.0446C52.4047 62.8685 52.171 62.9063 51.9404 62.9943C51.7676 63.0647 51.6007 63.1488 51.4414 63.2458C51.4414 63.2458 50.2602 63.3606 50.0723 63.4612C49.8843 63.5618 49.3506 63.403 49.0189 63.4612C48.6873 63.5194 48.0951 63.0729 48.0951 63.0729C46.4796 62.5416 47.3892 63.532 47.5045 63.576C47.5045 63.576 45.9253 63.216 45.8448 64.9217C45.7642 66.6274 47.345 66.1777 47.345 66.1777Z" fill="#3F3D56"/>
<path d="M51.3686 64.8289C51.3986 65.552 51.9655 66.4497 52.3035 66.9244C52.5167 66.9244 52.6809 66.9103 52.6809 66.9103C52.6809 66.9103 52.5498 63.4156 52.4504 63.0477C52.403 62.8716 52.1693 62.9094 51.9387 62.9974C51.6592 63.5193 51.3433 64.2441 51.3686 64.8289Z" fill="#565387"/>
<path opacity="0.1" d="M51.3686 64.8289C51.3986 65.552 51.9655 66.4497 52.3035 66.9244C52.5167 66.9244 52.6809 66.9103 52.6809 66.9103C52.6809 66.9103 52.5498 63.4156 52.4504 63.0477C52.403 62.8716 52.1693 62.9094 51.9387 62.9974C51.6592 63.5193 51.3433 64.2441 51.3686 64.8289Z" fill="black"/>
<path opacity="0.05" d="M50.8926 64.9248C51.0853 65.6228 51.0821 66.4056 51.3885 66.8804C51.434 66.8939 51.4804 66.9039 51.5275 66.9103C51.7859 66.9313 52.0454 66.936 52.3044 66.9244C52.5176 66.9244 52.6818 66.9103 52.6818 66.9103C52.6818 66.9103 52.5508 63.4156 52.4513 63.0477C52.4039 62.8716 52.1702 62.9094 51.9396 62.9974C51.7668 63.0678 51.5999 63.1519 51.4406 63.2489C51.4406 63.2489 50.6478 64.0303 50.8926 64.9248Z" fill="black"/>
<path opacity="0.1" d="M41.2871 57.8395C41.2871 57.8395 42.6705 58.2859 43.8422 59.8737L41.2871 57.8395Z" fill="black"/>
<g opacity="0.1">
<path d="M52.5256 40.6064C52.5256 40.6174 52.5256 40.6269 52.5177 40.6379C52.5044 40.6789 52.488 40.7188 52.4688 40.7574C52.484 40.7057 52.503 40.6553 52.5256 40.6064Z" fill="black"/>
<path d="M44.7025 39.91C44.726 39.8095 44.7621 39.7123 44.8099 39.6208C44.8099 39.6444 44.7941 39.6695 44.7878 39.6947C44.7352 40.0129 44.7573 40.339 44.8526 40.6473C44.8735 40.8133 44.9564 40.9654 45.0847 41.0734C45.2995 41.2101 45.6327 41.0907 45.808 41.2746C45.9185 41.3925 45.9248 41.6016 46.0701 41.6739C46.1242 41.6975 46.1843 41.704 46.2423 41.6928C46.626 41.6393 46.8471 41.2086 47.2166 41.0891C47.4316 41.034 47.659 41.054 47.8609 41.1457C47.9437 41.1709 48.018 41.2182 48.0757 41.2825C48.1989 41.4397 48.112 41.6739 48.1689 41.8657C48.2478 42.133 48.5684 42.2383 48.8448 42.2729C49.1211 42.3075 49.4338 42.3279 49.6186 42.537C49.6798 42.6144 49.7237 42.704 49.7474 42.7997C49.7711 42.8954 49.774 42.995 49.756 43.0919C49.7394 43.1596 49.7394 43.2302 49.756 43.2979C49.8318 43.5132 50.206 43.4802 50.3039 43.3104C50.3766 43.1862 50.3545 43.0841 50.5234 43.0495C50.6441 43.0407 50.7651 43.0618 50.8756 43.1108C51.1752 43.2129 51.4908 43.2603 51.8073 43.2507C52.0683 43.2547 52.324 43.1772 52.5385 43.029C52.6322 42.9557 52.7088 42.8629 52.7627 42.7571C52.714 42.9496 52.603 43.1208 52.4469 43.2444C52.2324 43.3925 51.9767 43.47 51.7157 43.4661C51.3992 43.4757 51.0836 43.4283 50.784 43.3261C50.6735 43.2771 50.5525 43.2561 50.4318 43.2648C50.2629 43.2994 50.285 43.4016 50.2139 43.5258C50.1144 43.6956 49.7402 43.7286 49.6644 43.5132C49.6486 43.4455 49.6486 43.375 49.6644 43.3073C49.6824 43.2104 49.6795 43.1108 49.6558 43.0151C49.6321 42.9194 49.5882 42.8298 49.527 42.7523C49.3422 42.5433 49.0311 42.5244 48.7532 42.4882C48.4752 42.4521 48.1562 42.3483 48.0773 42.0811C48.0204 41.8893 48.1073 41.655 47.9841 41.4978C47.9268 41.4338 47.8531 41.3865 47.7709 41.3611C47.5682 41.2701 47.3406 41.2501 47.125 41.3045C46.7571 41.4239 46.5344 41.8547 46.1507 41.9081C46.0927 41.9194 46.0326 41.9128 45.9785 41.8893C45.8332 41.817 45.8206 41.6079 45.7164 41.49C45.5411 41.306 45.2095 41.4255 44.9947 41.2887C44.8654 41.1813 44.7819 41.0291 44.761 40.8627C44.6671 40.5541 44.6471 40.2278 44.7025 39.91Z" fill="black"/>
</g>
<path opacity="0.1" d="M52.7505 51.405C52.4852 51.7603 52.1836 52.0888 51.9498 52.463C51.696 52.8318 51.5726 53.2743 51.5993 53.7206C51.8409 53.4738 51.953 53.1311 52.1046 52.8214C52.3636 52.2963 52.7489 51.8515 53.0758 51.3704C53.1374 51.2776 53.5354 50.7416 53.3348 50.7196C53.1674 50.696 52.8405 51.2839 52.7505 51.405Z" fill="black"/>
<path d="M54.1703 85.0425C54.3614 85.6525 54.554 86.264 54.7925 86.8567C55.2221 87.887 55.7627 88.868 56.4048 89.7823C56.8188 90.3843 57.2637 90.9646 57.7377 91.521C58.3314 92.2174 59.001 92.9186 59.2031 93.8084C59.3247 94.3224 59.2837 94.8585 59.3342 95.3804C59.3848 95.9023 59.5569 96.462 59.9848 96.7764C60.2896 97.0012 60.6797 97.0688 61.054 97.127C61.3224 97.1694 61.6572 97.1836 61.7962 96.9525C61.8448 96.8581 61.8702 96.7536 61.8704 96.6475L61.9351 95.8788C61.9478 95.7121 62.0078 95.4999 62.1752 95.492C62.3426 95.4842 62.4263 95.7058 62.5684 95.8064C62.7579 95.9385 63.0422 95.8065 63.1464 95.6068C63.2329 95.3907 63.2385 95.1507 63.1622 94.9308C63.0472 94.4932 62.8404 94.0849 62.5554 93.7326C62.2704 93.3804 61.9137 93.0922 61.5088 92.8871C61.2275 92.7742 60.9578 92.6347 60.7034 92.4705C60.4449 92.2468 60.2307 91.977 60.0717 91.6751C58.6062 89.2729 57.1328 86.8582 56.0985 84.2439C55.8947 83.7767 55.757 83.2836 55.6894 82.7787C55.6389 82.2647 55.7195 81.7475 55.7526 81.2318C55.8138 80.3055 55.7275 79.3754 55.4968 78.476C55.4464 78.2399 55.3573 78.0136 55.2331 77.8063C54.8067 77.1633 53.8118 77.0674 53.1801 77.5107C52.9475 77.6889 52.7547 77.9132 52.6139 78.1695C52.473 78.4258 52.3873 78.7084 52.3621 78.9995C52.3163 79.5214 52.6179 80.0622 52.7711 80.548C53.2354 82.0477 53.7018 83.5459 54.1703 85.0425Z" fill="#A1616A"/>
<path opacity="0.05" d="M54.1703 85.0425C54.3614 85.6525 54.554 86.264 54.7925 86.8567C55.2221 87.887 55.7627 88.868 56.4048 89.7823C56.8188 90.3843 57.2637 90.9646 57.7377 91.521C58.3314 92.2174 59.001 92.9186 59.2031 93.8084C59.3247 94.3224 59.2837 94.8585 59.3342 95.3804C59.3848 95.9023 59.5569 96.462 59.9848 96.7764C60.2896 97.0012 60.6797 97.0688 61.054 97.127C61.3224 97.1694 61.6572 97.1836 61.7962 96.9525C61.8448 96.8581 61.8702 96.7536 61.8704 96.6475L61.9351 95.8788C61.9478 95.7121 62.0078 95.4999 62.1752 95.492C62.3426 95.4842 62.4263 95.7058 62.5684 95.8064C62.7579 95.9385 63.0422 95.8065 63.1464 95.6068C63.2329 95.3907 63.2385 95.1507 63.1622 94.9308C63.0472 94.4932 62.8404 94.0849 62.5554 93.7326C62.2704 93.3804 61.9137 93.0922 61.5088 92.8871C61.2275 92.7742 60.9578 92.6347 60.7034 92.4705C60.4449 92.2468 60.2307 91.977 60.0717 91.6751C58.6062 89.2729 57.1328 86.8582 56.0985 84.2439C55.8947 83.7767 55.757 83.2836 55.6894 82.7787C55.6389 82.2647 55.7195 81.7475 55.7526 81.2318C55.8138 80.3055 55.7275 79.3754 55.4968 78.476C55.4464 78.2399 55.3573 78.0136 55.2331 77.8063C54.8067 77.1633 53.8118 77.0674 53.1801 77.5107C52.9475 77.6889 52.7547 77.9132 52.6139 78.1695C52.473 78.4258 52.3873 78.7084 52.3621 78.9995C52.3163 79.5214 52.6179 80.0622 52.7711 80.548C53.2354 82.0477 53.7018 83.5459 54.1703 85.0425Z" fill="black"/>
<path d="M44.9643 110.727C45.25 110.826 45.5538 110.862 45.855 110.834C45.8771 110.589 46.2087 110.534 46.4551 110.546C46.5742 110.542 46.6923 110.569 46.7977 110.625C46.8593 110.664 46.9067 110.721 46.9667 110.762C47.0737 110.82 47.1937 110.851 47.3157 110.851L48.598 110.958C49.1697 111.007 49.765 111.051 50.3004 110.848C50.407 110.814 50.5018 110.751 50.5736 110.666C50.7189 110.458 50.5736 110.161 50.373 110.01C50.1725 109.859 49.9135 109.792 49.7113 109.638C49.266 109.3 49.2044 108.668 48.9691 108.161C48.8019 107.842 48.5955 107.545 48.3548 107.276C48.1804 107.046 47.9771 106.838 47.75 106.658C47.2352 106.289 46.6446 106.297 46.0397 106.243C45.6133 106.206 45.2122 106.181 44.9059 106.558C44.5269 107.029 44.6785 107.973 44.7022 108.523C44.7317 109.263 44.8194 110 44.9643 110.727Z" fill="#514E7F"/>
<path opacity="0.05" d="M44.9643 110.727C45.25 110.826 45.5538 110.862 45.855 110.834C45.8771 110.589 46.2087 110.534 46.4551 110.546C46.5742 110.542 46.6923 110.569 46.7977 110.625C46.8593 110.664 46.9067 110.721 46.9667 110.762C47.0737 110.82 47.1937 110.851 47.3157 110.851L48.598 110.958C49.1697 111.007 49.765 111.051 50.3004 110.848C50.407 110.814 50.5018 110.751 50.5736 110.666C50.7189 110.458 50.5736 110.161 50.373 110.01C50.1725 109.859 49.9135 109.792 49.7113 109.638C49.266 109.3 49.2044 108.668 48.9691 108.161C48.8019 107.842 48.5955 107.545 48.3548 107.276C48.1804 107.046 47.9771 106.838 47.75 106.658C47.2352 106.289 46.6446 106.297 46.0397 106.243C45.6133 106.206 45.2122 106.181 44.9059 106.558C44.5269 107.029 44.6785 107.973 44.7022 108.523C44.7317 109.263 44.8194 110 44.9643 110.727Z" fill="black"/>
<path d="M45.4813 85.8961C45.0897 86.0219 44.9191 86.5077 44.9918 86.9117C45.0644 87.3157 45.3076 87.6647 45.5082 88.0232C46.0798 89.0403 46.3262 90.2036 46.8063 91.2648C47.1647 92.0508 47.6495 92.7896 48.0033 93.5851C48.357 94.3806 48.5765 95.2782 48.3618 96.1224C48.2575 96.5327 48.0554 96.9085 47.9212 97.3125C47.7883 97.7504 47.7015 98.2008 47.6622 98.6566C47.4883 100.205 47.4571 101.766 47.569 103.319C47.57 103.509 47.6097 103.696 47.6859 103.87C47.7664 104.027 47.9054 104.184 47.8438 104.341C47.8169 104.406 47.7585 104.453 47.7301 104.516C47.648 104.692 47.8122 104.879 47.9622 105.005C47.9354 105.052 47.8994 105.093 47.8563 105.127C47.8132 105.16 47.7638 105.184 47.7111 105.198C47.8187 105.266 47.9014 105.367 47.9469 105.486C47.9924 105.604 47.9984 105.734 47.9638 105.857C47.8312 105.877 47.8233 106.08 47.907 106.187C47.9907 106.294 48.1233 106.36 48.1833 106.481C48.2186 106.579 48.2148 106.688 48.1725 106.784C48.1302 106.879 48.0527 106.956 47.9559 106.996C47.7586 107.072 47.5434 107.088 47.3369 107.044C46.9867 106.995 46.6408 106.919 46.3025 106.817C46.1256 106.783 45.9672 106.686 45.8564 106.544C45.7456 106.403 45.6898 106.226 45.6993 106.047C45.6211 105.407 45.5973 104.762 45.6282 104.118C45.6835 100.999 45.6282 97.8769 45.4924 94.7595C45.4371 93.5018 45.0581 92.2835 44.5701 91.1264C44.3004 90.5351 44.0005 89.958 43.6716 89.3971C42.9673 88.1143 42.3451 86.6932 42.5061 85.239C42.5235 85.0818 42.5804 84.8947 42.7367 84.8696C42.7978 84.863 42.8595 84.8734 42.9151 84.8994C43.2396 85.0503 43.5535 85.2225 43.8548 85.4151C44.3499 85.7041 44.908 85.8692 45.4813 85.8961Z" fill="#464353"/>
<path opacity="0.05" d="M45.4813 85.8961C45.0897 86.0219 44.9191 86.5077 44.9918 86.9117C45.0644 87.3157 45.3076 87.6647 45.5082 88.0232C46.0798 89.0403 46.3262 90.2036 46.8063 91.2648C47.1647 92.0508 47.6495 92.7896 48.0033 93.5851C48.357 94.3806 48.5765 95.2782 48.3618 96.1224C48.2575 96.5327 48.0554 96.9085 47.9212 97.3125C47.7883 97.7504 47.7015 98.2008 47.6622 98.6566C47.4883 100.205 47.4571 101.766 47.569 103.319C47.57 103.509 47.6097 103.696 47.6859 103.87C47.7664 104.027 47.9054 104.184 47.8438 104.341C47.8169 104.406 47.7585 104.453 47.7301 104.516C47.648 104.692 47.8122 104.879 47.9622 105.005C47.9354 105.052 47.8994 105.093 47.8563 105.127C47.8132 105.16 47.7638 105.184 47.7111 105.198C47.8187 105.266 47.9014 105.367 47.9469 105.486C47.9924 105.604 47.9984 105.734 47.9638 105.857C47.8312 105.877 47.8233 106.08 47.907 106.187C47.9907 106.294 48.1233 106.36 48.1833 106.481C48.2186 106.579 48.2148 106.688 48.1725 106.784C48.1302 106.879 48.0527 106.956 47.9559 106.996C47.7586 107.072 47.5434 107.088 47.3369 107.044C46.9867 106.995 46.6408 106.919 46.3025 106.817C46.1256 106.783 45.9672 106.686 45.8564 106.544C45.7456 106.403 45.6898 106.226 45.6993 106.047C45.6211 105.407 45.5973 104.762 45.6282 104.118C45.6835 100.999 45.6282 97.8769 45.4924 94.7595C45.4371 93.5018 45.0581 92.2835 44.5701 91.1264C44.3004 90.5351 44.0005 89.958 43.6716 89.3971C42.9673 88.1143 42.3451 86.6932 42.5061 85.239C42.5235 85.0818 42.5804 84.8947 42.7367 84.8696C42.7978 84.863 42.8595 84.8734 42.9151 84.8994C43.2396 85.0503 43.5535 85.2225 43.8548 85.4151C44.3499 85.7041 44.908 85.8692 45.4813 85.8961Z" fill="black"/>
<path d="M40.1871 82.1044C39.9829 81.9738 39.7473 81.9 39.5048 81.8906C39.2238 81.9047 38.9837 82.0886 38.7642 82.2647C38.5041 82.4634 38.2572 82.6787 38.0252 82.9093C37.5445 83.4193 37.2097 84.0479 37.0553 84.7301C36.9009 85.4123 36.9326 86.1232 37.1471 86.7891C37.3793 87.4824 37.8041 88.0939 38.2241 88.6929L39.0769 89.9128C40.3781 91.7726 41.6794 93.6323 43.0422 95.4481C43.0425 95.4927 43.0571 95.5361 43.0837 95.572C43.1104 95.6079 43.1479 95.6344 43.1907 95.6477C43.2396 95.6603 43.3012 95.6587 43.3312 95.6996C43.3451 95.7251 43.3511 95.7541 43.3486 95.7829C43.3456 95.9172 43.3199 96.0501 43.2728 96.1759C43.2507 96.2174 43.245 96.2657 43.257 96.3111C43.3012 96.4133 43.4876 96.3552 43.5476 96.451C43.5871 96.5139 43.5381 96.5957 43.486 96.6491C43.4339 96.7026 43.3691 96.7623 43.3786 96.8362C43.3881 96.9101 43.5176 96.9934 43.5128 97.0846C43.5128 97.138 43.4655 97.1789 43.4323 97.2214C43.3859 97.289 43.3647 97.3707 43.3725 97.4523C43.3803 97.5338 43.4165 97.6101 43.4749 97.6678C43.5649 98.5545 43.0801 99.3971 42.9838 100.281C42.8259 101.677 43.4655 103.04 43.5428 104.44C43.5382 104.598 43.5684 104.755 43.6313 104.899C43.7623 105.141 44.105 105.288 44.0877 105.563C44.0629 105.676 44.0307 105.787 43.9913 105.896C43.9645 106.053 44.0403 106.21 44.0434 106.368C44.0466 106.525 43.906 106.718 43.7576 106.655C43.8692 107.026 43.9687 107.4 44.0561 107.778L47.0407 108.023C47.0729 107.756 47.0639 107.486 47.0139 107.221C46.9523 106.934 46.8228 106.666 46.7549 106.382C46.7108 106.242 46.6983 106.094 46.7185 105.948C46.7387 105.803 46.7911 105.664 46.8718 105.541C46.794 105.542 46.7183 105.515 46.6582 105.466C46.5981 105.417 46.5574 105.348 46.5433 105.272C46.5183 105.119 46.521 104.962 46.5512 104.81C46.6301 104.035 46.3033 103.271 46.3127 102.493C46.3222 101.879 46.5386 101.29 46.6475 100.688C46.8812 99.3987 46.638 98.0011 47.2145 96.8236C47.5635 96.1146 48.0467 95.3286 47.655 94.6416C47.4624 94.302 47.1213 94.0694 46.8986 93.7487C46.7171 93.4456 46.5809 93.1177 46.4943 92.7756C46.0348 91.3607 45.291 90.0464 44.6388 88.7008C44.4578 88.3634 44.3234 88.0033 44.2393 87.6302C44.1932 87.3027 44.1763 86.9718 44.1887 86.6413C44.1887 86.0481 44.1523 85.4553 44.0798 84.8665C44.065 84.6085 43.991 84.3573 43.8634 84.1323C43.7345 83.9621 43.5736 83.8185 43.3897 83.7094C42.4106 83.0413 41.2451 82.6593 40.1871 82.1044Z" fill="#464353"/>
<path d="M43.7637 111.816C44.0503 111.914 44.3544 111.95 44.656 111.922C44.6781 111.677 45.0081 111.621 45.2545 111.634C45.3736 111.63 45.4918 111.657 45.5972 111.713C45.6588 111.752 45.7061 111.81 45.7677 111.849C45.8745 111.909 45.9946 111.939 46.1167 111.939L47.3975 112.046C47.9707 112.095 48.5645 112.14 49.1014 111.936C49.2079 111.903 49.3023 111.839 49.373 111.754C49.5183 111.546 49.373 111.25 49.1725 111.1C48.9719 110.949 48.7129 110.879 48.5124 110.725C48.0655 110.387 48.0054 109.757 47.7686 109.251C47.6028 108.931 47.397 108.633 47.1558 108.364C46.9808 108.134 46.7771 107.927 46.5494 107.748C46.0362 107.377 45.444 107.385 44.8408 107.331C44.4128 107.294 44.0117 107.27 43.7069 107.646C43.3279 108.117 43.4795 109.061 43.5016 109.612C43.5313 110.353 43.6189 111.09 43.7637 111.816Z" fill="#514E7F"/>
<path d="M56.9934 76.9589C58.626 76.9589 59.9496 75.6414 59.9496 74.016C59.9496 72.3907 58.626 71.0731 56.9934 71.0731C55.3607 71.0731 54.0371 72.3907 54.0371 74.016C54.0371 75.6414 55.3607 76.9589 56.9934 76.9589Z" fill="#A1616A"/>
<path d="M54.2034 74.8901C53.7802 75.2533 53.1722 75.28 52.6164 75.3366C51.4277 75.4582 50.2707 75.7915 49.2006 76.3207C49.0525 76.3843 48.9183 76.4761 48.8058 76.5911C48.7097 76.7158 48.6414 76.8594 48.6052 77.0124C48.5035 77.3435 48.4655 77.6907 48.4931 78.0358C48.5318 78.3706 48.6285 78.6961 48.7789 78.9979C49.1892 79.8435 49.8223 80.5623 50.6108 81.0778C50.7497 81.1808 50.9074 81.2561 51.0751 81.2995C51.4636 81.3796 51.8394 81.1564 52.2231 81.0558C52.5722 80.9651 52.9401 80.9766 53.2828 81.0888C53.5986 81.1957 53.9445 81.3906 54.2571 81.2602C54.4573 81.1487 54.6128 80.9722 54.6977 80.7602C54.9997 80.1921 55.2692 79.6074 55.5047 79.0089C55.5893 78.7753 55.6868 78.5465 55.7968 78.3235C56.1395 77.6743 56.7317 77.1728 57.027 76.4984C57.057 76.4469 57.0751 76.3895 57.08 76.3302C57.085 76.2709 57.0766 76.2113 57.0555 76.1556C57.0007 76.0805 56.9249 76.023 56.8375 75.9906C56.4009 75.7417 56.0029 75.4308 55.6563 75.0678C55.4621 74.8823 55.1052 74.3808 54.8256 74.3368C54.5114 74.2833 54.4166 74.7078 54.2034 74.8901Z" fill="#A1616A"/>
<path d="M54.2742 80.8703C53.9315 81.0275 53.5272 80.9599 53.1561 80.8829C52.1991 80.6832 51.2311 80.482 50.3452 80.0701C50.0684 79.9647 49.8286 79.7811 49.6551 79.5419C49.5473 79.3374 49.4818 79.1134 49.4624 78.8832L49.3045 77.7828C49.2476 77.4007 49.3455 77.047 49.355 76.6603C49.361 76.6174 49.3584 76.5738 49.3473 76.532C49.3362 76.4901 49.3168 76.4509 49.2903 76.4166C49.2362 76.3714 49.1664 76.3494 49.096 76.3553C48.6523 76.3632 48.3838 76.8269 48.0727 77.1414C47.8929 77.3228 47.678 77.4662 47.441 77.5627C47.1568 77.679 46.8094 77.7607 46.6909 78.0437C46.6436 78.1616 46.6499 78.2953 46.5993 78.4132C46.4004 78.8848 45.5523 78.7276 45.336 79.1992C45.2744 79.3312 45.2791 79.4963 45.1781 79.6001C45.077 79.7038 44.8875 79.7023 44.7312 79.7274C44.1137 79.828 43.8152 80.537 43.2878 80.8719C42.844 81.1548 42.2724 81.1486 41.7939 81.3686C41.5286 81.4913 41.2933 81.6831 41.0122 81.7632C40.7311 81.8434 40.4137 81.801 40.112 81.8088C40.0799 81.8058 40.0474 81.8094 40.0167 81.8194C39.986 81.8294 39.9577 81.8456 39.9336 81.867C39.9148 81.8954 39.9025 81.9276 39.8973 81.9612C39.8921 81.9948 39.8943 82.0292 39.9036 82.0619C40.0498 82.9915 40.4368 83.8671 41.0263 84.6026C41.6158 85.338 42.3876 85.9079 43.2657 86.2562C43.3676 86.2885 43.4644 86.3351 43.5531 86.3945C43.8215 86.5942 43.8689 87.0234 44.1737 87.1649C44.2837 87.2034 44.4023 87.2109 44.5163 87.1864C44.6303 87.162 44.7352 87.1067 44.8196 87.0265C44.9877 86.8653 45.1459 86.6942 45.2933 86.514C45.5716 86.2247 45.9369 86.0332 46.334 85.9685C46.7004 85.9103 47.1094 85.9528 47.4063 85.728C47.5277 85.617 47.6407 85.4972 47.7443 85.3696C47.9642 85.1653 48.2253 85.0099 48.5102 84.9137C49.2886 84.6075 50.1112 84.4276 50.9468 84.3807C51.7254 84.3383 52.526 84.409 53.2619 84.1575C53.453 84.0985 53.6291 83.9993 53.7783 83.8667C53.9366 83.6963 54.0542 83.4927 54.1226 83.2708C54.3881 82.4986 54.4404 81.6696 54.2742 80.8703Z" fill="#E2AA25"/>
<path d="M50.4625 76.533C50.6804 76.5125 50.8999 76.533 51.1194 76.533C51.3768 76.533 51.6311 76.4701 51.8885 76.4685C52.2961 76.4751 52.691 76.6112 53.0154 76.857C53.3398 77.1028 53.5769 77.4453 53.6919 77.8346C53.7136 77.8968 53.7174 77.9638 53.703 78.028C53.6945 78.0597 53.6748 78.0873 53.6476 78.1058C53.6203 78.1243 53.5873 78.1324 53.5545 78.1286C53.4691 77.8961 53.3573 77.6741 53.2213 77.4668C52.9766 77.1341 52.6277 76.8919 52.2296 76.7782C51.8327 76.6662 51.4145 76.6512 51.0105 76.7342C50.8415 76.7656 50.6773 76.8096 50.513 76.8552L49.7234 77.0722C49.5781 77.1115 49.4313 77.1508 49.2907 77.2027C49.1818 77.2435 48.9954 77.3929 48.888 77.3992C48.7428 77.3992 48.8596 77.2734 48.9244 77.1885C49.0533 77.0134 49.2338 76.8827 49.4408 76.8144C49.7689 76.6806 50.1119 76.5861 50.4625 76.533Z" fill="#E2AA25"/>
<path d="M52.4562 85.3727C52.6473 85.9826 52.8384 86.5942 53.0784 87.1868C53.5075 88.2175 54.0481 89.1985 54.6908 90.1125C55.1048 90.7144 55.5496 91.2948 56.0236 91.8512C56.6158 92.5476 57.2775 93.2487 57.4891 94.1369C57.6107 94.6526 57.5697 95.1887 57.6202 95.709C57.6707 96.2294 57.8429 96.7906 58.2692 97.105C58.5756 97.3282 58.9657 97.3958 59.3399 97.4556C59.6068 97.498 59.9416 97.5122 60.0821 97.2811C60.1298 97.1863 60.1552 97.082 60.1564 96.9761L60.2195 96.2074C60.2337 96.0407 60.2938 95.8285 60.4596 95.8206C60.6254 95.8128 60.7122 96.0344 60.8544 96.135C61.0439 96.2671 61.3281 96.135 61.4324 95.9354C61.5182 95.7191 61.5238 95.4794 61.4481 95.2594C61.3326 94.8221 61.1256 94.414 60.8407 94.0618C60.5557 93.7096 60.1993 93.4213 59.7947 93.2157C59.5132 93.1025 59.243 92.963 58.9878 92.7991C58.7288 92.5752 58.5146 92.3049 58.3561 92.0021C56.889 89.6015 55.4156 87.1868 54.3828 84.5709C54.1791 84.1041 54.041 83.6116 53.9723 83.1073C53.9233 82.5933 54.0023 82.076 54.037 81.5604C54.0982 80.6341 54.0119 79.704 53.7812 78.8046C53.7309 78.5682 53.6412 78.3418 53.5159 78.1349C53.0911 77.4903 52.0946 77.396 51.4629 77.8393C51.2301 78.0174 51.037 78.2416 50.8959 78.4979C50.7548 78.7542 50.6688 79.0369 50.6433 79.3281C50.5975 79.85 50.9007 80.3908 51.0523 80.8766C51.5187 82.3774 51.9867 83.8761 52.4562 85.3727Z" fill="#A1616A"/>
<path d="M61.293 71.9346C61.3167 71.6894 61.0956 71.463 60.8445 71.3058C60.5801 71.1709 60.3262 71.0164 60.085 70.8436C59.8607 70.6502 59.7375 70.3987 59.5133 70.2053C59.2584 70.0121 58.969 69.8686 58.6605 69.7825C58.0043 69.5534 57.3155 69.4308 56.6202 69.4193C55.9175 69.4193 55.1989 69.5765 54.6699 69.9334C54.5394 70.0151 54.4266 70.122 54.3383 70.2478C54.2549 70.3987 54.2013 70.5641 54.1804 70.7351C54.0543 71.2626 53.8837 71.7785 53.6703 72.2773C53.4508 72.8323 53.2171 73.4076 52.7007 73.8368C52.148 74.2943 51.3031 74.5584 50.9383 75.1118C50.8979 75.1609 50.8697 75.2188 50.8557 75.2807C50.8417 75.3427 50.8424 75.407 50.8578 75.4686C50.9099 75.6085 51.0773 75.7044 51.232 75.7925C52.129 76.305 52.9028 76.97 53.3008 77.7638C53.6987 78.5577 53.6877 79.4931 53.1207 80.2241C52.9123 80.4945 52.6249 80.8152 52.8286 81.0872C53.1444 81.5006 54.2009 81.2633 54.4472 81.7003C54.5246 81.8402 54.4788 81.999 54.4788 82.1515C54.4788 82.6105 54.9226 83.0177 55.4611 83.2299C55.9996 83.4421 56.6234 83.4925 57.2298 83.5192C57.3908 83.159 57.4066 82.7509 57.274 82.3794C57.2336 82.2993 57.2177 82.2091 57.2282 82.12C57.2734 82.0211 57.3436 81.9355 57.4319 81.8717C58.0794 81.2617 57.942 80.3656 57.5535 79.6409C57.165 78.9162 56.5586 78.2543 56.3328 77.4919C56.2207 77.113 56.2207 76.687 56.5223 76.3726C56.6954 76.2213 56.882 76.0861 57.0798 75.9685C57.433 75.7298 57.7051 75.3899 57.8599 74.9939C58.0415 74.4924 58.0178 73.8934 58.5452 73.5554C59.0522 73.241 59.7644 73.3322 60.325 73.1168C60.7561 72.947 61.2583 72.2946 61.293 71.9346Z" fill="#464353"/>
<path d="M91.914 96.5673C89.5057 95.5754 88.7982 94.8585 88.7982 93.4232C88.7982 92.3228 89.2846 91.0525 91.4165 91.0525C92.595 91.0353 93.7527 91.3633 94.7454 91.9958L95.4387 90.1706C94.6349 89.699 93.501 89.2604 91.8397 89.2054V86.5328H90.439V89.3154C87.8918 89.7289 86.4168 91.4644 86.4168 93.7518C86.4168 96.1492 87.8381 97.4178 90.668 98.5198C92.7178 99.3515 93.79 100.288 93.79 101.804C93.79 103.376 92.4619 104.505 90.4958 104.505C88.9467 104.505 87.1906 103.981 86.1941 103.319L85.5293 105.165C86.4989 105.855 88.1602 106.35 89.7647 106.379V109.161H92.1477V106.295C94.9902 105.824 96.5204 103.78 96.5204 101.611C96.5204 99.1581 94.766 97.7244 91.914 96.5673Z" fill="url(#paint1_linear_742_5088)"/>
<path d="M89.7705 108.532V105.75C88.1661 105.722 86.5048 105.226 85.5352 104.536L86.2 102.691C87.1965 103.352 88.9525 103.876 90.5017 103.876C92.4678 103.876 93.7896 102.747 93.7896 101.175C93.7896 99.6596 92.711 98.7227 90.6612 97.8958C87.8376 96.7953 86.41 95.5251 86.41 93.1277C86.41 90.8403 87.885 89.1048 90.4322 88.6913V85.9088H91.833V88.5813C93.4943 88.6363 94.6281 89.0765 95.4319 89.5465L94.7387 91.3638C93.7459 90.7314 92.5883 90.4034 91.4097 90.4206C89.2778 90.4206 88.7914 91.6892 88.7914 92.7913C88.7914 94.2234 89.4989 94.9403 91.9072 95.9354C94.7592 97.0924 96.5137 98.5262 96.5137 100.979C96.5137 103.156 94.9913 105.195 92.1409 105.663V108.532H89.7705Z" fill="#E2AA25"/>
<path d="M106 43C106.265 43 106.52 42.8946 106.707 42.7071C106.895 42.5196 107 42.2652 107 42V37C107 36.4696 106.789 35.9609 106.414 35.5858C106.039 35.2107 105.53 35 105 35H81C80.4696 35 79.9609 35.2107 79.5858 35.5858C79.2107 35.9609 79 36.4696 79 37V42C79 42.2652 79.1054 42.5196 79.2929 42.7071C79.4804 42.8946 79.7348 43 80 43C80.5304 43 81.0391 43.2107 81.4142 43.5858C81.7893 43.9609 82 44.4696 82 45C82 45.5304 81.7893 46.0391 81.4142 46.4142C81.0391 46.7893 80.5304 47 80 47C79.7348 47 79.4804 47.1054 79.2929 47.2929C79.1054 47.4804 79 47.7348 79 48V53C79 53.5304 79.2107 54.0391 79.5858 54.4142C79.9609 54.7893 80.4696 55 81 55H105C105.53 55 106.039 54.7893 106.414 54.4142C106.789 54.0391 107 53.5304 107 53V48C107 47.7348 106.895 47.4804 106.707 47.2929C106.52 47.1054 106.265 47 106 47C105.47 47 104.961 46.7893 104.586 46.4142C104.211 46.0391 104 45.5304 104 45C104 44.4696 104.211 43.9609 104.586 43.5858C104.961 43.2107 105.47 43 106 43ZM105 48.87V53H98V50H96V53H81V48.87C81.856 48.6463 82.6137 48.1451 83.1544 47.4448C83.6952 46.7445 83.9885 45.8848 83.9885 45C83.9885 44.1152 83.6952 43.2555 83.1544 42.5552C82.6137 41.8549 81.856 41.3537 81 41.13V37H96V40H98V37H105V41.13C104.144 41.3537 103.386 41.8549 102.846 42.5552C102.305 43.2555 102.011 44.1152 102.011 45C102.011 45.8848 102.305 46.7445 102.846 47.4448C103.386 48.1451 104.144 48.6463 105 48.87Z" fill="#E2AA25"/>
<path d="M96 42H98V48H96V42Z" fill="#E2AA25"/>
</g>
<defs>
<linearGradient id="paint0_linear_742_5088" x1="48.2923" y1="66.8223" x2="48.2923" y2="36.8115" gradientUnits="userSpaceOnUse">
<stop stop-color="#808080" stop-opacity="0.25"/>
<stop offset="0.54" stop-color="#808080" stop-opacity="0.12"/>
<stop offset="1" stop-color="#808080" stop-opacity="0.1"/>
</linearGradient>
<linearGradient id="paint1_linear_742_5088" x1="85.5356" y1="97.8486" x2="96.5204" y2="97.8486" gradientUnits="userSpaceOnUse">
<stop stop-color="#808080" stop-opacity="0.25"/>
<stop offset="0.54" stop-color="#808080" stop-opacity="0.12"/>
<stop offset="1" stop-color="#808080" stop-opacity="0.1"/>
</linearGradient>
<clipPath id="clip0_742_5088">
<rect width="186" height="114" fill="white"/>
</clipPath>
</defs>
</svg>
