<svg width="104" height="30" viewBox="0 0 104 30" fill="none" xmlns="http://www.w3.org/2000/svg">
<path fill-rule="evenodd" clip-rule="evenodd" d="M95.9257 7.74173C95.7319 7.80489 95.4335 8.43689 95.2625 9.14622C94.9916 10.2704 95.0798 10.5436 95.9498 11.2768C96.4986 11.7394 96.872 12.2072 96.7796 12.3168C96.687 12.4262 96.7398 12.6237 96.8965 12.7558C97.0534 12.8881 97.2136 13.3659 97.2525 13.8181C97.3192 14.5876 97.3539 14.6155 97.7966 14.2576C98.4131 13.7594 99.0973 14.7865 99.1766 16.3298C99.2082 16.9461 99.405 17.5941 99.6136 17.7699C99.8222 17.9457 99.9907 18.3942 99.9883 18.7668C99.9826 19.6373 100.619 20.1779 101.049 19.6677C101.239 19.4429 101.451 20.2345 101.543 21.5115C101.708 23.8061 101.543 24.5621 101.065 23.6977C100.878 23.3581 100.651 23.3797 100.324 23.7677C100.064 24.0753 99.7085 24.2059 99.5329 24.0579C99.2847 23.8487 99.225 23.9195 99.2644 24.3764C99.2924 24.6996 99.1642 25.1432 98.9796 25.3621C98.7186 25.6719 98.6328 25.6295 98.5933 25.1727C98.5218 24.3456 97.6505 23.6998 97.2492 24.176C97.0646 24.3949 96.7976 24.4763 96.6558 24.3568C96.5143 24.2375 96.614 24.021 96.8779 23.8758C97.1416 23.7303 97.4994 23.1234 97.6728 22.5268C98.0733 21.1478 97.2754 19.9205 96.1164 20.1326C95.3267 20.277 95.2957 20.2512 95.2277 19.4017C95.189 18.9169 95.3256 18.4655 95.5312 18.3986C96.1853 18.1845 95.3343 17.7614 94.1688 17.7206C93.5505 17.6989 92.9413 17.594 92.8147 17.4873C92.6881 17.3805 92.7859 17.0544 93.032 16.7624C93.4132 16.3102 93.302 16.082 92.2823 15.2225C91.6239 14.6675 91.0086 14.3042 90.9153 14.4149C90.8218 14.5259 90.3612 14.5612 89.8913 14.4934C89.2684 14.4037 89.1662 14.3285 89.5131 14.215C89.8782 14.0955 89.6744 13.8784 88.64 13.283C87.8979 12.8559 86.6823 11.9529 85.9389 11.2764C85.128 10.5384 84.4923 10.1583 84.3502 10.3269C84.2203 10.4811 83.8815 10.4117 83.5974 10.1722C83.3133 9.9327 82.9035 9.79478 82.6867 9.86579C82.4695 9.93658 82.2385 9.83221 82.1732 9.63326C82.1077 9.43458 81.9417 9.40539 81.8041 9.56862C81.6566 9.74354 81.4918 9.66221 81.4024 9.37034C81.1468 8.53562 79.9742 7.75753 79.0789 7.82864C78.575 7.8688 78.104 7.67117 77.923 7.34336C77.6996 6.93848 77.5679 6.93327 77.4329 7.32342C77.2926 7.72906 77.1231 7.70287 76.7259 7.21371C76.3966 6.80811 75.8077 6.58958 75.1324 6.62244C74.5434 6.65078 73.8327 6.48169 73.5536 6.24647C73.2746 6.01125 72.2411 5.46117 71.2572 5.02407C70.0144 4.47187 69.352 4.36433 69.0885 4.67157C68.8045 5.00199 68.7265 4.98118 68.7796 4.5883C68.8634 3.96522 67.5194 3.38627 66.4377 3.57909C66.06 3.64662 65.6396 3.50022 65.5033 3.25372C65.3674 3.00745 64.4834 2.87071 63.5391 2.95012C62.4477 3.04216 61.686 2.90178 61.4482 2.56518C61.2423 2.27399 60.6036 2.0589 60.0288 2.08653C59.4538 2.11442 58.8225 2.0018 58.6261 1.83631C58.1765 1.45735 53.3643 0.82163 51.8183 0.936854C51.1809 0.984301 50.5561 0.936228 50.4298 0.829717C50.3034 0.723205 49.8066 0.669054 49.3252 0.709542C48.8443 0.749993 47.7209 0.746562 46.8289 0.701984C45.9371 0.657628 45.0207 0.842224 44.7931 1.11216C44.5294 1.4251 44.2874 1.43682 44.1257 1.14437C43.7945 0.545101 37.964 0.970604 36.5155 1.70007C35.8925 2.01388 35.2247 2.08755 34.9677 1.87094C34.3976 1.39041 32.8528 1.78173 32.1832 2.57615C31.9031 2.90847 31.5525 3.07827 31.404 2.95315C30.9058 2.53316 28.1153 3.11803 27.2283 3.82864C26.7452 4.21551 26.1153 4.45047 25.8285 4.3508C25.4503 4.2191 25.1712 4.42828 24.8116 5.11352C24.403 5.89141 24.2657 5.96683 24.031 5.54243C23.8468 5.20921 23.6236 5.17323 23.3981 5.44078C23.2064 5.66825 22.8011 5.80788 22.497 5.75134C22.1932 5.69501 21.7017 5.85275 21.4051 6.10211C21.1084 6.35148 20.5829 6.58729 20.2378 6.62594C19.8921 6.66463 19.4656 6.86721 19.29 7.07556C19.1141 7.28419 18.8434 7.3479 18.6886 7.21739C18.5292 7.08308 18.3761 7.20052 18.3357 7.48751C18.2037 8.42907 16.7715 9.31747 13.9141 10.23C13.1964 10.4591 12.2996 11.1138 11.6006 11.9188C10.9227 12.6999 9.90449 13.4533 9.09245 13.7754C7.58139 14.3745 6.36811 15.625 5.84437 17.1226C5.6047 17.8086 5.39404 18.0596 5.14267 17.9594C4.89157 17.8594 4.73527 18.0459 4.62214 18.5807C4.50737 19.125 4.29075 19.3755 3.86978 19.4507C3.4301 19.5291 3.29448 19.7407 3.34073 20.2759C3.38692 20.8133 3.26165 21.0078 2.84683 21.0427C2.43152 21.0777 2.37054 21.157 2.60652 21.3559C2.7805 21.5026 2.59648 22.1647 2.19794 22.8275C1.76079 23.5546 1.61804 24.1547 1.83832 24.3404C2.09345 24.5554 1.90062 25.0072 1.19657 25.8425C0.384238 26.8062 0.281087 27.1111 0.662545 27.4208C1.32231 27.9569 2.78348 28.0136 2.46328 27.4908C2.31306 27.2452 2.55987 26.7419 3.10887 26.1731C3.59764 25.6667 3.87426 25.1484 3.72315 25.0211C3.35256 24.7087 5.22854 22.5268 6.30673 22.0164C6.99536 21.6906 7.23564 21.357 7.48215 20.3848C7.69282 19.5545 7.93037 19.1836 8.22348 19.2273C8.46085 19.2626 8.68135 19.1111 8.7138 18.8901C8.7463 18.6696 9.46164 18.296 10.3036 18.06C11.5992 17.697 11.8729 17.4927 12.0857 16.7301C12.2951 15.9791 12.3815 15.9094 12.604 16.3121C12.8465 16.7512 13.7306 16.4872 14.5245 15.7385C14.6643 15.6067 15.2004 15.279 15.7159 15.0107C16.2314 14.7424 16.7892 14.3614 16.9557 14.1639C17.1219 13.9667 17.4589 13.8708 17.7041 13.9508C18.0466 14.0628 18.1205 13.9821 18.0229 13.6034C17.9321 13.2522 18.3781 13.0751 19.573 12.9882C20.714 12.9053 21.3318 12.6701 21.5042 12.2533C21.6546 11.8898 22.1607 11.5927 22.7493 11.5222C24.3044 11.3357 25.2549 10.3981 25.0253 9.27706C24.8585 8.46223 24.8973 8.38326 25.3019 8.71569C25.5605 8.92822 25.9254 8.92072 26.1122 8.69908C26.363 8.40154 26.5896 8.48631 26.9769 9.02291C27.2952 9.46421 27.6121 9.64545 27.7828 9.48386C27.9374 9.33769 28.1944 9.12347 28.3542 9.00843C28.514 8.89339 28.76 8.69218 28.9014 8.56167C29.0428 8.43116 29.338 8.47563 29.5574 8.66063C29.7769 8.84562 30.0632 8.87037 30.1934 8.71589C30.3236 8.56141 30.2654 8.41021 30.0638 8.38007C29.8621 8.35042 29.9523 8.14579 30.2638 7.92625C30.5756 7.70644 30.9277 7.69088 31.0469 7.89171C31.3193 8.35191 32.6075 8.43074 33.141 8.01966C33.3633 7.8488 33.9014 7.7308 34.3368 7.75731C34.9074 7.79242 35.2409 7.57597 35.5305 6.98194C35.8601 6.30638 35.9528 6.26826 36.0432 6.7699C36.131 7.25475 36.7635 7.35519 39.0817 7.25344C40.6919 7.18287 42.1339 6.97504 42.2862 6.79108C42.4386 6.60761 42.6598 6.53845 42.7779 6.63801C43.12 6.92638 47.4192 6.63435 47.698 6.30363C47.8369 6.1388 48.4295 5.96368 49.0153 5.91442C49.72 5.85514 49.9046 5.92125 49.5613 6.11042C48.6352 6.62012 49.4647 7.22804 50.9828 7.15191C51.7971 7.11103 52.8383 7.19092 53.2962 7.32947C54.5297 7.70317 55.6897 7.83372 56.2458 7.66143C56.5166 7.57774 56.942 7.68031 57.1908 7.88997C57.4398 8.09936 58.2427 8.26538 58.9755 8.25923C59.7082 8.2526 60.5282 8.43345 60.7982 8.66105C61.068 8.88843 61.4398 8.89538 61.6243 8.6764C61.8364 8.42478 62.214 8.49241 62.6506 8.86038C63.0302 9.18036 63.8092 9.53186 64.3815 9.64107C64.9536 9.75054 66.1885 10.0837 67.1262 10.3819C68.0638 10.6801 68.9351 10.8002 69.0624 10.6491C69.1899 10.4978 69.5208 10.5652 69.7977 10.7986C70.0747 11.032 70.5187 11.1035 70.7845 10.9571C71.0503 10.8107 71.3787 10.8913 71.5138 11.1364C71.6492 11.3813 72.1927 11.7336 72.7218 11.9194C73.4836 12.187 73.7572 12.1071 74.0383 11.535C74.2336 11.138 74.3359 11.0204 74.2663 11.2736C74.1145 11.8235 74.9669 12.6196 75.5158 12.4403C75.7293 12.3705 76.1743 12.525 76.5045 12.7838C76.8347 13.0426 77.0063 13.0678 76.8853 12.84C76.5794 12.263 76.9917 11.8683 77.4748 12.2755C77.6943 12.4605 77.9714 12.4961 78.0907 12.3547C78.2097 12.2135 78.4288 12.3178 78.5776 12.5867C78.8955 13.162 78.3655 13.9343 77.9141 13.5537C77.7435 13.41 77.6164 13.4377 77.6316 13.6157C77.6469 13.7935 78.0825 13.9245 78.5995 13.9072C79.1314 13.8888 79.4273 14.008 79.281 14.1816C78.9645 14.5571 79.9057 15.4077 80.4435 15.2318C80.657 15.162 81.0639 15.3007 81.348 15.5402C81.729 15.8613 82.0315 15.7885 82.5006 15.2632L83.1369 14.551L82.8084 15.4568C82.5439 16.1863 82.6329 16.4484 83.2667 16.8042C83.6992 17.0475 84.2527 17.1363 84.4971 17.0018C84.741 16.8674 84.9909 16.9105 85.0524 17.0972C85.114 17.2839 85.515 17.5115 85.9437 17.6027C86.4784 17.7166 86.6496 17.8563 86.4889 18.0469C86.1994 18.3904 88.6359 19.9314 89.2012 19.7623C89.4147 19.6985 89.6621 19.8676 89.7514 20.138C89.8554 20.4545 89.9369 20.4669 89.9801 20.1728C90.0694 19.563 92.5961 21.9942 92.6617 22.7532C92.7299 23.5415 93.686 24.2643 93.888 23.6801C94.0045 23.3438 94.2719 23.4034 94.8038 23.8845C95.2169 24.2581 95.4375 24.7037 95.2944 24.8745C95.1508 25.0454 94.9535 25.4167 94.8555 25.6991C94.7359 26.0451 94.3331 26.0814 93.6244 25.81C92.4905 25.3759 92.1613 25.5257 92.2404 26.4409C92.2792 26.8894 92.0664 26.8984 91.307 26.4804C90.766 26.1824 90.0988 25.9801 89.8245 26.0312C88.9439 26.1938 86.5214 28.9806 86.9478 29.34C87.3918 29.7143 89.2332 28.7158 89.3648 28.0295C89.5262 27.1853 89.8667 27.5037 89.803 28.4392C89.756 29.131 89.8389 29.194 91.1702 29.4781C92.1339 29.6839 92.8368 29.5831 93.3661 29.1635C93.8407 28.7872 94.2334 28.7073 94.3723 28.9587C94.6662 29.4906 95.6978 28.773 95.6378 28.0787C95.5827 27.4402 96.8575 27.4447 98.0479 28.0871C99.0078 28.6051 100.702 27.9228 100.708 27.016C100.711 26.5714 100.795 26.4837 101.029 26.6806C101.219 26.8413 101.451 26.6911 101.612 26.3025C101.759 25.9476 102.068 25.6859 102.3 25.7202C102.96 25.8187 103.366 25.1124 102.855 24.7523C102.322 24.3757 102.391 23.0449 102.947 22.9981C103.154 22.9807 103.287 23.2359 103.242 23.5654C103.183 23.9963 103.243 24.0694 103.453 23.8256C104.071 23.1095 103.891 20.898 103.125 19.797C102.672 19.1463 102.48 18.5099 102.67 18.2851C103.032 17.8545 102.694 17.4105 102.141 17.5914C101.945 17.6552 101.885 17.8946 102.007 18.1236C102.157 18.4061 102.092 18.4363 101.804 18.2181C101.57 18.0409 101.27 17.4861 101.137 16.9849C100.981 16.4024 100.801 16.1825 100.638 16.376C100.498 16.5424 100.278 16.5003 100.149 16.2823C100.02 16.0643 100.098 15.7317 100.322 15.5434C100.816 15.1295 100.697 14.4312 99.9135 13.1459C99.4338 12.3589 99.2047 12.2157 98.6632 12.3668C98.0736 12.5308 98.0493 12.4894 98.4433 11.9939C99.3298 10.8784 98.5538 9.39075 97.2105 9.63048C96.6052 9.7386 96.5149 9.633 96.4035 8.68922C96.3347 8.10462 96.1195 7.67808 95.9257 7.74173ZM94.026 7.56242C93.6858 7.51582 93.5221 7.63612 93.6007 7.87537C93.6713 8.08966 93.9478 8.14385 94.2157 7.99652C94.7782 7.68658 94.7684 7.66471 94.026 7.56242ZM90.7457 17.6728C90.5181 17.7934 90.5837 17.593 90.8913 17.2281C91.1989 16.8631 91.385 16.7648 91.305 17.0093C91.2251 17.2542 90.9734 17.5528 90.7457 17.6728ZM85.3474 15.518C85.1965 15.5307 85.172 15.258 85.2926 14.912C85.4672 14.4122 85.5232 14.4073 85.5668 14.8889C85.5969 15.2225 85.498 15.5056 85.3474 15.518ZM74.9319 10.3592C74.663 10.5071 74.396 10.5885 74.3386 10.54C74.2811 10.4916 74.385 10.2727 74.5696 10.0538C74.7542 9.83479 75.0212 9.75339 75.163 9.87291C75.3045 9.9922 75.2006 10.2111 74.9319 10.3592ZM76.1936 11.7349C75.9304 11.875 75.9204 11.7589 76.1682 11.4389C76.3926 11.1495 76.5874 11.0458 76.6014 11.2084C76.6155 11.371 76.432 11.6081 76.1936 11.7349ZM12.0158 15.5821C11.773 16.1941 11.3076 15.6303 11.5287 14.9912C11.6471 14.6493 11.8089 14.5778 11.9488 14.8064C12.0738 15.0107 12.1041 15.3596 12.0158 15.5821Z" fill="#E8E8E8"/>
</svg>
