<svg width="73" height="72" viewBox="0 0 73 72" fill="none" xmlns="http://www.w3.org/2000/svg">
<path d="M0.174316 16C0.174316 7.16344 7.33776 0 16.1743 0H72.1743V56C72.1743 64.8366 65.0109 72 56.1743 72H0.174316V16Z" fill="#FEF7F4"/>
<g clip-path="url(#clip0_2276_3764)">
<path d="M36.9742 44.0803C36.4942 44.4537 35.8142 44.4537 35.3342 44.0803L27.1342 37.707C26.6542 37.3337 25.9876 37.3337 25.5076 37.707C24.8276 38.2403 24.8276 39.267 25.5076 39.8004L34.5209 46.8137C35.4809 47.5604 36.8276 47.5604 37.8009 46.8137L46.8142 39.8004C47.4942 39.267 47.4942 38.2403 46.8142 37.707L46.8009 37.6937C46.3209 37.3204 45.6542 37.3204 45.1742 37.6937L36.9742 44.0803ZM37.8142 40.0537L46.8276 33.0404C47.5076 32.507 47.5076 31.467 46.8276 30.9337L37.8142 23.9204C36.8542 23.1737 35.5076 23.1737 34.5342 23.9204L25.5209 30.947C24.8409 31.4804 24.8409 32.5204 25.5209 33.0537L34.5342 40.067C35.4942 40.8137 36.8542 40.8137 37.8142 40.0537Z" fill="#E2AA25"/>
</g>
<defs>
<clipPath id="clip0_2276_3764">
<rect width="32" height="32" fill="white" transform="translate(20.1743 20)"/>
</clipPath>
</defs>
</svg>
