<svg width="73" height="72" viewBox="0 0 73 72" fill="none" xmlns="http://www.w3.org/2000/svg">
<rect x="0.5" width="72" height="72" rx="36" fill="#E2AA25"/>
<path d="M37 44H28C27.7348 44 27.4804 43.8946 27.2929 43.7071C27.1054 43.5196 27 43.2652 27 43V34C27 33.7348 27.1054 33.4804 27.2929 33.2929C27.4804 33.1054 27.7348 33 28 33H31M37 44H40C40.2652 44 40.5196 43.8946 40.7071 43.7071C40.8946 43.5196 41 43.2652 41 43V40.5M37 44V43" stroke="#ECCA7B" stroke-width="2" stroke-linecap="round" stroke-linejoin="round"/>
<path fill-rule="evenodd" clip-rule="evenodd" d="M46 30C46 29.4696 45.7893 28.9609 45.4142 28.5858C45.0391 28.2107 44.5304 28 44 28H32C31.4696 28 30.9609 28.2107 30.5858 28.5858C30.2107 28.9609 30 29.4696 30 30V39C30 39.5304 30.2107 40.0391 30.5858 40.4142C30.9609 40.7893 31.4696 41 32 41H44C44.5304 41 45.0391 40.7893 45.4142 40.4142C45.7893 40.0391 46 39.5304 46 39V30ZM42 30.001C42 30.2662 41.8946 30.5206 41.7071 30.7081C41.5196 30.8956 41.2652 31.001 41 31.001C40.7348 31.001 40.4804 30.8956 40.2929 30.7081C40.1054 30.5206 40 30.2662 40 30.001C40 29.7358 40.1054 29.4804 40.2929 29.2929C40.4804 29.1054 40.7348 29 41 29C41.2652 29 41.5196 29.1054 41.7071 29.2929C41.8946 29.4804 42 29.7358 42 30.001ZM41 35.001C41.2652 35.001 41.5196 34.8956 41.7071 34.7081C41.8946 34.5206 42 34.2662 42 34.001V34C42 33.7348 41.8946 33.4804 41.7071 33.2929C41.5196 33.1054 41.2652 33 41 33C40.7348 33 40.4804 33.1054 40.2929 33.2929C40.1054 33.4804 40 33.7348 40 34V34.001C40 34.2662 40.1054 34.5206 40.2929 34.7081C40.4804 34.8956 40.7348 35.001 41 35.001ZM42 38.001C42 38.2662 41.8946 38.5206 41.7071 38.7081C41.5196 38.8956 41.2652 39.001 41 39.001C40.7348 39.001 40.4804 38.8956 40.2929 38.7081C40.1054 38.5206 40 38.2662 40 38.001V38C40 37.7348 40.1054 37.4804 40.2929 37.2929C40.4804 37.1054 40.7348 37 41 37C41.2652 37 41.5196 37.1054 41.7071 37.2929C41.8946 37.4804 42 37.7348 42 38V38.001Z" fill="#FAFBFC"/>
</svg>
