<svg width="73" height="72" viewBox="0 0 73 72" fill="none" xmlns="http://www.w3.org/2000/svg">
<rect x="1" width="72" height="72" rx="36" fill="#E2AA25"/>
<path opacity="0.4" d="M46.2167 28.9497C46.1001 28.933 45.9834 28.933 45.8667 28.9497C43.2834 28.8663 41.2334 26.7497 41.2334 24.1497C41.2334 21.4997 43.3834 19.333 46.0501 19.333C48.7001 19.333 50.8667 21.483 50.8667 24.1497C50.8501 26.7497 48.8001 28.8663 46.2167 28.9497Z" fill="#FAFBFC"/>
<path opacity="0.4" d="M51.6498 40.4997C49.7832 41.7497 47.1665 42.2163 44.7498 41.8997C45.3832 40.533 45.7165 39.0164 45.7332 37.4164C45.7332 35.7497 45.3665 34.1664 44.6665 32.783C47.1332 32.4497 49.7498 32.9163 51.6332 34.1663C54.2665 35.8997 54.2665 38.7497 51.6498 40.4997Z" fill="#FAFBFC"/>
<path opacity="0.4" d="M27.7335 28.9497C27.8502 28.933 27.9668 28.933 28.0835 28.9497C30.6668 28.8663 32.7168 26.7497 32.7168 24.1497C32.7168 21.4997 30.5668 19.333 27.9002 19.333C25.2502 19.333 23.0835 21.483 23.0835 24.1497C23.1002 26.7497 25.1502 28.8663 27.7335 28.9497Z" fill="#FAFBFC"/>
<path opacity="0.4" d="M27.9169 37.4167C27.9169 39.0333 28.2669 40.5667 28.9002 41.95C26.5502 42.2 24.1002 41.7 22.3002 40.5167C19.6669 38.7667 19.6669 35.9167 22.3002 34.1667C24.0835 32.9667 26.6002 32.4833 28.9669 32.75C28.2835 34.15 27.9169 35.7334 27.9169 37.4167Z" fill="#FAFBFC"/>
<path d="M37.2 42.45C37.0667 42.4333 36.9167 42.4333 36.7667 42.45C33.7 42.35 31.25 39.8333 31.25 36.7333C31.25 33.5667 33.8 31 36.9833 31C40.15 31 42.7167 33.5667 42.7167 36.7333C42.7167 39.8333 40.2833 42.35 37.2 42.45Z" fill="#FAFBFC"/>
<path d="M31.7835 45.9004C29.2668 47.5837 29.2668 50.3504 31.7835 52.0171C34.6502 53.9337 39.3502 53.9337 42.2168 52.0171C44.7335 50.3337 44.7335 47.5671 42.2168 45.9004C39.3668 43.9837 34.6668 43.9837 31.7835 45.9004Z" fill="#FAFBFC"/>
</svg>
