<svg width="73" height="72" viewBox="0 0 73 72" fill="none" xmlns="http://www.w3.org/2000/svg">
<rect x="1" width="72" height="72" rx="36" fill="#E2AA25"/>
<path d="M47.125 31.375V28.625C47.125 26.3563 45.2687 24.5 43 24.5H32C29.7312 24.5 27.875 26.3563 27.875 28.625V31.375C25.6063 31.375 23.75 33.2312 23.75 35.5V42.375C23.75 44.6437 25.6063 46.5 27.875 46.5V49.25H30.625V46.5H44.375V49.25H47.125V46.5C49.3937 46.5 51.25 44.6437 51.25 42.375V35.5C51.25 33.2312 49.3937 31.375 47.125 31.375ZM30.625 28.625C30.625 27.8688 31.2438 27.25 32 27.25H43C43.7563 27.25 44.375 27.8688 44.375 28.625V32.4475C43.5362 33.2037 43 34.29 43 35.5V38.25H32V35.5C32 34.29 31.4637 33.2037 30.625 32.4475V28.625ZM48.5 42.375C48.5 43.1313 47.8813 43.75 47.125 43.75H27.875C27.1188 43.75 26.5 43.1313 26.5 42.375V35.5C26.5 34.7437 27.1188 34.125 27.875 34.125C28.6312 34.125 29.25 34.7437 29.25 35.5V41H45.75V35.5C45.75 34.7437 46.3687 34.125 47.125 34.125C47.8813 34.125 48.5 34.7437 48.5 35.5V42.375Z" fill="#FAFBFC"/>
</svg>
