<svg width="73" height="72" viewBox="0 0 73 72" fill="none" xmlns="http://www.w3.org/2000/svg">
<rect x="0.5" width="72" height="72" rx="36" fill="#E2AA25"/>
<path d="M53.1668 53.917H19.8335C19.1502 53.917 18.5835 53.3503 18.5835 52.667C18.5835 51.9837 19.1502 51.417 19.8335 51.417H53.1668C53.8502 51.417 54.4168 51.9837 54.4168 52.667C54.4168 53.3503 53.8502 53.917 53.1668 53.917Z" fill="#FAFBFC"/>
<path opacity="0.4" d="M51.4998 32.6331V52.6665H21.4165L21.4998 32.6165C21.4998 31.5998 21.9665 30.6332 22.7832 29.9999L34.4498 20.9332C35.6498 19.9832 37.3498 19.9832 38.5498 20.9332L40.7832 22.6665L48.1665 28.3998L50.2165 29.9999C51.0332 30.6332 51.4998 31.5998 51.4998 32.6331Z" fill="#FAFBFC"/>
<path d="M38.1668 44.333H34.8335C33.4502 44.333 32.3335 45.4497 32.3335 46.833V52.6663H40.6668V46.833C40.6668 45.4497 39.5502 44.333 38.1668 44.333Z" fill="#FAFBFC"/>
<path d="M32.3335 38.9163H29.0002C28.0835 38.9163 27.3335 38.1663 27.3335 37.2497V34.7497C27.3335 33.833 28.0835 33.083 29.0002 33.083H32.3335C33.2502 33.083 34.0002 33.833 34.0002 34.7497V37.2497C34.0002 38.1663 33.2502 38.9163 32.3335 38.9163Z" fill="#FAFBFC"/>
<path d="M44 38.9163H40.6667C39.75 38.9163 39 38.1663 39 37.2497V34.7497C39 33.833 39.75 33.083 40.6667 33.083H44C44.9167 33.083 45.6667 33.833 45.6667 34.7497V37.2497C45.6667 38.1663 44.9167 38.9163 44 38.9163Z" fill="#FAFBFC"/>
<path d="M48.1665 28.4003L40.7832 22.667H46.4665C47.3832 22.667 48.1332 23.4003 48.1332 24.317L48.1665 28.4003Z" fill="#FAFBFC"/>
</svg>
